<svg width="25" height="25" viewBox="0 0 25 25" fill="none" xmlns="http://www.w3.org/2000/svg">
<path fill-rule="evenodd" clip-rule="evenodd" d="M23.5003 23.5051H24.5117C24.7814 23.5051 25 23.7238 25 23.9935C25 24.2632 24.7814 24.4818 24.5117 24.4818H23.012H1.98799H0.488281C0.218604 24.4818 0 24.2632 0 23.9935C0 23.7238 0.218604 23.5052 0.488281 23.5052H1.49971V18.2833V16.142C1.49971 15.336 2.15537 14.6804 2.96133 14.6804H3.79517V11.7263V9.86395C3.79517 9.058 4.45083 8.40233 5.25679 8.40233H6.75571V6.98617C6.41294 6.89974 6.09858 6.7223 5.84214 6.46586C5.24106 5.86473 5.08999 4.94872 5.46621 4.18646L6.80615 1.47177C6.88843 1.30511 7.05815 1.1996 7.24399 1.1996C7.42983 1.1996 7.59956 1.30511 7.68184 1.47177L9.02178 4.18641C9.39805 4.94872 9.24697 5.86473 8.64585 6.46581C8.3894 6.72225 8.07505 6.89969 7.73228 6.98612V8.40228H12.0117V6.30326C11.6768 6.21869 11.3597 6.04598 11.0981 5.78446C10.4971 5.18339 10.346 4.26742 10.7222 3.50512L12.0622 0.790417C12.1444 0.623767 12.3142 0.51825 12.5 0.51825C12.6858 0.51825 12.8556 0.623767 12.9378 0.790417L14.2778 3.50507C14.654 4.26742 14.503 5.18339 13.9019 5.78446C13.6403 6.04598 13.3232 6.21869 12.9883 6.30326V8.40228H17.2677V6.98461C16.9328 6.90004 16.6157 6.72733 16.3542 6.46581C15.753 5.86469 15.602 4.94867 15.9782 4.18641L17.3182 1.47177C17.4004 1.30511 17.5702 1.1996 17.756 1.1996C17.9418 1.1996 18.1116 1.30511 18.1938 1.47177L19.5338 4.18636C19.9101 4.94872 19.759 5.86469 19.1579 6.46576C18.8963 6.72728 18.5792 6.89999 18.2443 6.98456V8.40223H19.7432C20.5492 8.40223 21.2048 9.05795 21.2048 9.86385V11.7261V14.6803H22.0387C22.8446 14.6803 23.5003 15.3359 23.5003 16.1419V18.2832V23.5051ZM16.854 4.61859C16.663 5.00541 16.7396 5.4702 17.0447 5.77518C17.1124 5.84296 17.1878 5.89818 17.2678 5.94247C17.5706 6.11054 17.9416 6.11054 18.2444 5.94247C18.3243 5.89813 18.3997 5.84291 18.4674 5.77518C18.7724 5.4702 18.8491 5.00541 18.6582 4.61859L17.7561 2.791L16.854 4.61859ZM11.5979 3.93729C11.407 4.32411 11.4837 4.7889 11.7887 5.09388C11.8564 5.16166 11.9318 5.21683 12.0118 5.26122C12.3146 5.42928 12.6856 5.42928 12.9883 5.26122C13.0682 5.21688 13.1437 5.16166 13.2114 5.09393C13.5164 4.78895 13.593 4.32416 13.4021 3.93734L12.5 2.10975L11.5979 3.93729ZM6.34194 4.61859C6.15103 5.00541 6.22764 5.4702 6.53267 5.77518C6.60039 5.84296 6.67583 5.89818 6.75581 5.94247C7.05859 6.11054 7.42964 6.11054 7.73237 5.94247C7.81226 5.89813 7.8877 5.84291 7.95542 5.77518C8.2604 5.47015 8.33706 5.00536 8.14614 4.61859L7.24404 2.791L6.34194 4.61859ZM19.7433 9.3788H5.25679C4.98936 9.3788 4.77173 9.59637 4.77173 9.86385H4.77178V11.3969C4.98687 11.4644 5.21855 11.4955 5.49199 11.4955C6.22007 11.4955 6.55234 11.274 6.973 10.9935L6.97314 10.9935C7.44136 10.6813 7.97207 10.3275 8.99575 10.3275C10.0195 10.3275 10.5502 10.6813 11.0184 10.9935L11.0186 10.9935C11.4392 11.274 11.7715 11.4955 12.4997 11.4955C13.2278 11.4955 13.5601 11.274 13.9808 10.9936L13.9808 10.9935C14.4491 10.6813 14.9798 10.3275 16.0037 10.3275C17.0275 10.3275 17.5583 10.6813 18.0266 10.9935C18.4473 11.274 18.7796 11.4955 19.5079 11.4955C19.7814 11.4955 20.0132 11.4644 20.2283 11.3969V9.86385C20.2283 9.59637 20.0107 9.3788 19.7433 9.3788ZM2.47627 18.8123V23.5051H22.5237V18.8122C22.1085 18.8886 21.844 19.0646 21.5308 19.2735L21.5306 19.2736C21.0623 19.5857 20.5316 19.9395 19.5078 19.9395C18.484 19.9395 17.9533 19.5857 17.4851 19.2736L17.4849 19.2735C17.0642 18.993 16.7318 18.7715 16.0036 18.7715C15.2755 18.7715 14.9432 18.993 14.5225 19.2734L14.5225 19.2735L14.5223 19.2736C14.0541 19.5857 13.5234 19.9395 12.4996 19.9395C11.4758 19.9395 10.9451 19.5857 10.4768 19.2735C10.0562 18.993 9.72383 18.7715 8.9957 18.7715C8.26763 18.7715 7.93535 18.993 7.5147 19.2735L7.51456 19.2736C7.04633 19.5857 6.51562 19.9395 5.49194 19.9395C4.46807 19.9395 3.93735 19.5857 3.46909 19.2735C3.15586 19.0646 2.89141 18.8887 2.47627 18.8123ZM20.9891 18.4609C21.3765 18.2026 21.8068 17.9158 22.5237 17.8245V16.1419C22.5237 15.8744 22.3062 15.6568 22.0387 15.6568H10.602C10.3323 15.6568 10.1137 15.4382 10.1137 15.1685C10.1137 14.8989 10.3323 14.6803 10.602 14.6803H20.2283V12.4033C20.0035 12.4492 19.766 12.4722 19.5078 12.4722C18.4839 12.4722 17.9532 12.1183 17.4849 11.8061C17.0642 11.5257 16.7318 11.3041 16.0036 11.3041C15.2755 11.3041 14.9432 11.5257 14.5225 11.8061L14.5225 11.8061L14.5224 11.8062C14.0541 12.1183 13.5234 12.4722 12.4996 12.4722C11.4759 12.4722 10.9452 12.1184 10.4769 11.8062L10.4768 11.8061C10.0562 11.5257 9.72388 11.3041 8.9957 11.3041C8.26763 11.3041 7.93535 11.5257 7.5147 11.8061L7.51456 11.8062C7.04633 12.1184 6.51562 12.4722 5.49194 12.4722C5.23384 12.4722 4.99644 12.4493 4.77173 12.4033V14.6802H6.70864C6.97832 14.6802 7.19692 14.8988 7.19692 15.1685C7.19692 15.4382 6.97832 15.6568 6.70864 15.6568H2.96133C2.6939 15.6568 2.47627 15.8744 2.47627 16.1418V17.8245C3.19311 17.9158 3.62327 18.2025 4.0107 18.4608L4.01079 18.4609C4.43145 18.7413 4.76372 18.9629 5.49189 18.9629C6.21997 18.9629 6.55225 18.7413 6.9729 18.4609L6.97304 18.4608C7.44126 18.1486 7.97197 17.7949 8.99565 17.7949C10.0195 17.7949 10.5502 18.1487 11.0185 18.4609C11.4392 18.7413 11.7714 18.9629 12.4996 18.9629C13.2278 18.9629 13.56 18.7414 13.9807 18.4609L13.9808 18.4609L13.9808 18.4608C14.4491 18.1487 14.9798 17.7949 16.0036 17.7949C17.0274 17.7949 17.5581 18.1486 18.0264 18.4608L18.0266 18.4609L18.0267 18.461C18.4474 18.7414 18.7797 18.9629 19.5078 18.9629C20.236 18.9629 20.5684 18.7413 20.9891 18.4609ZM9.10643 14.9819C9.11864 15.0112 9.12792 15.0419 9.13426 15.0732C9.14061 15.1044 9.14354 15.1367 9.14354 15.1684C9.14354 15.2001 9.14061 15.2324 9.13426 15.2641C9.12792 15.2949 9.11864 15.3256 9.10643 15.3554C9.09422 15.3847 9.07909 15.413 9.06151 15.4394C9.04344 15.4663 9.02293 15.4912 9.00047 15.5136C8.90965 15.6044 8.78368 15.6567 8.65526 15.6567C8.62352 15.6567 8.59129 15.6538 8.56004 15.6474C8.52879 15.6411 8.49803 15.6318 8.46873 15.6196C8.43895 15.6074 8.41063 15.5922 8.38426 15.5747C8.35741 15.5566 8.3325 15.5361 8.31004 15.5136C8.28758 15.4912 8.26707 15.4663 8.2495 15.4394C8.23192 15.413 8.21678 15.3847 8.20457 15.3554C8.19237 15.3256 8.18309 15.2949 8.17674 15.2641C8.1704 15.2324 8.16698 15.2001 8.16698 15.1684C8.16698 15.1367 8.1704 15.1044 8.17674 15.0732C8.18309 15.0419 8.19237 15.0112 8.20457 14.9819C8.21678 14.9521 8.23192 14.9238 8.2495 14.8974C8.26707 14.8706 8.28758 14.8457 8.31004 14.8232C8.3325 14.8007 8.35741 14.7802 8.38426 14.7626C8.41063 14.7451 8.43895 14.7299 8.46873 14.7177C8.49803 14.7055 8.52879 14.6962 8.56004 14.6899C8.71873 14.6577 8.88719 14.7099 9.00047 14.8232C9.02293 14.8457 9.04344 14.8706 9.06151 14.8974C9.07909 14.9238 9.09422 14.9521 9.10643 14.9819ZM4.76223 22.2919C4.75588 22.2607 4.7466 22.2299 4.7344 22.2006C4.72219 22.1713 4.70705 22.143 4.68948 22.1162C4.67141 22.0898 4.65139 22.0649 4.62844 22.0419C4.60598 22.0195 4.58108 21.9995 4.55422 21.9814C4.52785 21.9638 4.49953 21.9487 4.47024 21.9365C4.44094 21.9243 4.41018 21.915 4.37893 21.9086C4.22024 21.8769 4.05178 21.9287 3.93801 22.0419C3.91555 22.0649 3.89504 22.0898 3.87746 22.1162C3.85989 22.143 3.84475 22.1713 3.83254 22.2006C3.82033 22.2299 3.81106 22.2607 3.80471 22.2919C3.79836 22.3237 3.79543 22.3554 3.79543 22.3877C3.79543 22.4194 3.79836 22.4511 3.80471 22.4829C3.81106 22.5141 3.82033 22.5449 3.83254 22.5742C3.84475 22.6035 3.85989 22.6318 3.87746 22.6586C3.89504 22.685 3.91555 22.7099 3.93801 22.7329C4.02883 22.8237 4.15481 22.8759 4.28371 22.8759C4.31545 22.8759 4.34719 22.8725 4.37893 22.8662C4.41018 22.8598 4.44094 22.8505 4.47024 22.8383C4.49953 22.8261 4.52785 22.811 4.55422 22.7934C4.58108 22.7753 4.60598 22.7553 4.62844 22.7329C4.65139 22.7099 4.67141 22.685 4.68948 22.6586C4.70705 22.6318 4.72219 22.6035 4.7344 22.5742C4.7466 22.5449 4.75588 22.5141 4.76223 22.4829C4.76858 22.4511 4.77199 22.4194 4.77199 22.3877C4.77199 22.3554 4.76858 22.3237 4.76223 22.2919ZM9.98241 20.7407C9.99461 20.77 10.0039 20.8007 10.0102 20.832C10.0166 20.8637 10.0195 20.8955 10.0195 20.9272C10.0195 20.9594 10.0166 20.9912 10.0102 21.0229C10.0039 21.0541 9.99461 21.0849 9.98241 21.1142C9.9702 21.1435 9.95506 21.1718 9.93749 21.1987C9.91942 21.225 9.89891 21.2504 9.87645 21.2729C9.85399 21.2954 9.82909 21.3154 9.80223 21.3334C9.77586 21.351 9.74754 21.3662 9.71825 21.3784C9.68846 21.3906 9.6577 21.3998 9.62694 21.4062C9.5952 21.4125 9.56297 21.416 9.53124 21.416C9.4995 21.416 9.46727 21.4125 9.43602 21.4062C9.40477 21.3998 9.37401 21.3906 9.34471 21.3784C9.31493 21.3662 9.28661 21.351 9.26024 21.3334C9.23338 21.3154 9.20848 21.2954 9.18602 21.2729C9.16356 21.2504 9.14305 21.225 9.12547 21.1987C9.1079 21.1718 9.09276 21.1435 9.08055 21.1142C9.06835 21.0849 9.05907 21.0541 9.05272 21.0229C9.04637 20.9912 9.04295 20.9594 9.04295 20.9272C9.04295 20.8955 9.04637 20.8637 9.05272 20.832C9.05907 20.8007 9.06835 20.77 9.08055 20.7407C9.09276 20.7114 9.1079 20.6831 9.12547 20.6562C9.14305 20.6298 9.16356 20.6044 9.18602 20.582C9.20848 20.5595 9.23338 20.539 9.26024 20.5214C9.28661 20.5039 9.31493 20.4887 9.34471 20.4765C9.37401 20.4643 9.40477 20.455 9.43602 20.4487C9.49901 20.436 9.56395 20.436 9.62694 20.4487C9.6577 20.455 9.68846 20.4643 9.71825 20.4765C9.74754 20.4887 9.77586 20.5039 9.80223 20.5214C9.82909 20.539 9.85399 20.5595 9.87645 20.582C9.89891 20.6044 9.91942 20.6298 9.93749 20.6562C9.95506 20.6831 9.9702 20.7114 9.98241 20.7407ZM15.6553 22.2919C15.6489 22.2607 15.6396 22.2299 15.6274 22.2006C15.6152 22.1713 15.6001 22.143 15.5825 22.1162C15.5649 22.0898 15.5444 22.0649 15.522 22.0419C15.4995 22.0195 15.4746 21.9995 15.4478 21.9814C15.4214 21.9638 15.3931 21.9487 15.3633 21.9365C15.334 21.9243 15.3032 21.915 15.272 21.9086C15.209 21.8959 15.144 21.8959 15.0811 21.9086C15.0503 21.915 15.0195 21.9243 14.9897 21.9365C14.9604 21.9487 14.9321 21.9638 14.9058 21.9814C14.8789 21.9995 14.854 22.0195 14.8315 22.0419C14.8091 22.0649 14.7886 22.0898 14.7705 22.1162C14.7529 22.143 14.7378 22.1713 14.7256 22.2006C14.7134 22.2299 14.7041 22.2607 14.6978 22.2919C14.6914 22.3237 14.6885 22.3554 14.6885 22.3876C14.6885 22.4194 14.6914 22.4511 14.6978 22.4829C14.7041 22.5141 14.7134 22.5449 14.7256 22.5742C14.7378 22.6035 14.7529 22.6318 14.7705 22.6586C14.7886 22.685 14.8091 22.7104 14.8315 22.7329C14.854 22.7553 14.8789 22.7758 14.9058 22.7934C14.9321 22.811 14.9604 22.8261 14.9897 22.8383C15.0195 22.8505 15.0503 22.8598 15.0811 22.8662C15.1128 22.8725 15.145 22.8759 15.1768 22.8759C15.3052 22.8759 15.4312 22.8237 15.522 22.7329C15.5444 22.7104 15.5649 22.685 15.5825 22.6586C15.6001 22.6318 15.6152 22.6035 15.6274 22.5742C15.6396 22.5449 15.6489 22.5141 15.6553 22.4829C15.6616 22.4511 15.665 22.4194 15.665 22.3876C15.665 22.3554 15.6616 22.3237 15.6553 22.2919ZM21.1675 21.0327C21.1797 21.062 21.1889 21.0928 21.1953 21.124C21.2016 21.1553 21.205 21.1875 21.205 21.2192C21.205 21.2515 21.2016 21.2832 21.1953 21.3149C21.1889 21.3462 21.1797 21.3765 21.1675 21.4063C21.1552 21.4355 21.1401 21.4639 21.1225 21.4902C21.105 21.5171 21.0844 21.542 21.062 21.5649C20.9712 21.6558 20.8452 21.7075 20.7168 21.7075C20.6845 21.7075 20.6528 21.7046 20.6211 21.6982C20.5898 21.6919 20.5591 21.6826 20.5298 21.6704C20.5005 21.6582 20.4721 21.6431 20.4453 21.6255C20.4189 21.6074 20.394 21.5874 20.3711 21.5649C20.3486 21.542 20.3286 21.5171 20.3105 21.4902C20.2929 21.4639 20.2778 21.4355 20.2656 21.4063C20.2534 21.377 20.2441 21.3462 20.2378 21.3149C20.2314 21.2832 20.2285 21.2515 20.2285 21.2192C20.2285 21.1875 20.2314 21.1553 20.2378 21.124C20.2441 21.0928 20.2534 21.062 20.2656 21.0327C20.2778 21.0034 20.2929 20.9746 20.3105 20.9482C20.3286 20.9219 20.3486 20.8965 20.3711 20.874C20.4624 20.7832 20.5879 20.731 20.7168 20.731C20.8452 20.731 20.9707 20.7832 21.062 20.874C21.0844 20.8965 21.105 20.9219 21.1225 20.9482C21.1401 20.9746 21.1552 21.0034 21.1675 21.0327ZM16.3369 13.1425C16.3305 13.1118 16.3213 13.081 16.3091 13.0512C16.2968 13.0219 16.2817 12.9936 16.2641 12.9672C16.2461 12.9404 16.2256 12.9155 16.2031 12.893C16.1806 12.8701 16.1557 12.85 16.1289 12.832C16.1025 12.8144 16.0742 12.7993 16.0449 12.7871C16.0151 12.7749 15.9843 12.7656 15.9536 12.7592C15.8906 12.7465 15.8257 12.7465 15.7627 12.7592C15.7314 12.7656 15.7007 12.7749 15.6714 12.7871C15.6416 12.7993 15.6133 12.8144 15.5869 12.832C15.56 12.85 15.5351 12.8701 15.5127 12.893C15.4902 12.9155 15.4697 12.9404 15.4521 12.9672C15.4345 12.9936 15.4194 13.0219 15.4072 13.0512C15.395 13.081 15.3857 13.1118 15.3794 13.1425C15.373 13.1743 15.3696 13.2065 15.3696 13.2382C15.3696 13.27 15.373 13.3022 15.3794 13.3334C15.3857 13.3647 15.395 13.3955 15.4072 13.4248C15.4194 13.454 15.4345 13.4829 15.4521 13.5092C15.4697 13.5361 15.4902 13.561 15.5127 13.5834C15.5351 13.6059 15.56 13.6264 15.5869 13.644C15.6133 13.6616 15.6416 13.6767 15.6714 13.6889C15.7007 13.7011 15.7314 13.7104 15.7627 13.7167C15.7939 13.7231 15.8261 13.7265 15.8579 13.7265C15.8896 13.7265 15.9218 13.7231 15.9536 13.7167C15.9843 13.7104 16.0151 13.7011 16.0449 13.6889C16.0742 13.6767 16.1025 13.6616 16.1289 13.644C16.1557 13.6264 16.1806 13.6059 16.2031 13.5834C16.2256 13.561 16.2461 13.5361 16.2641 13.5092C16.2817 13.4829 16.2968 13.454 16.3091 13.4248C16.3213 13.3955 16.3305 13.3647 16.3369 13.3334C16.3432 13.3022 16.3462 13.27 16.3462 13.2382C16.3462 13.2065 16.3432 13.1743 16.3369 13.1425ZM9.93358 12.3862C9.94579 12.4155 9.95506 12.4463 9.96141 12.4775C9.96776 12.5092 9.97069 12.541 9.97069 12.5732C9.97069 12.605 9.96776 12.6367 9.96141 12.6685C9.95506 12.6997 9.94579 12.7305 9.93358 12.7598C9.92137 12.7891 9.90624 12.8174 9.88866 12.8442C9.87059 12.8706 9.85057 12.8955 9.82811 12.9185C9.80565 12.9409 9.78026 12.9609 9.75389 12.979C9.72704 12.9966 9.69872 13.0117 9.66942 13.0239C9.64012 13.0361 9.60936 13.0454 9.57811 13.0517C9.54686 13.0581 9.51463 13.0615 9.4829 13.0615C9.45067 13.0615 9.41893 13.0581 9.38719 13.0517C9.35594 13.0454 9.32518 13.0361 9.29588 13.0239C9.26659 13.0117 9.23827 12.9966 9.21141 12.979C9.18504 12.9609 9.16014 12.9409 9.13719 12.9185C9.11473 12.8955 9.09471 12.8706 9.07665 12.8442C9.05907 12.8174 9.04393 12.7891 9.03172 12.7598C9.01952 12.7305 9.01024 12.6997 9.00389 12.6685C8.99754 12.6367 8.99461 12.605 8.99461 12.5732C8.99461 12.541 8.99754 12.5093 9.00389 12.4775C9.01024 12.4463 9.01952 12.4155 9.03172 12.3862C9.04393 12.3569 9.05907 12.3286 9.07665 12.3018C9.09471 12.2754 9.11473 12.25 9.13719 12.2275C9.16014 12.2051 9.18504 12.1846 9.21141 12.167C9.23827 12.1494 9.26659 12.1343 9.29588 12.1221C9.32518 12.1099 9.35594 12.1006 9.38719 12.0942C9.45018 12.0815 9.51512 12.0815 9.57811 12.0942C9.60936 12.1006 9.64012 12.1099 9.66942 12.1221C9.69872 12.1343 9.72704 12.1494 9.75389 12.167C9.78026 12.1846 9.80565 12.2051 9.82811 12.2275C9.85057 12.25 9.87108 12.2754 9.88866 12.3018C9.90624 12.3286 9.92137 12.3569 9.93358 12.3862Z" fill="white"/>
</svg>
