<svg width="18" height="23" viewBox="0 0 18 23" fill="none" xmlns="http://www.w3.org/2000/svg">
<path fill-rule="evenodd" clip-rule="evenodd" d="M0.0402541 7.67036C0.486377 3.1171 4.57598 0 9.06925 0C13.4103 0 16.9685 3.84398 17.4539 6.63661C17.4844 6.75188 17.5 6.87293 17.5 7C17.5003 7.00325 17.5004 7.00667 17.5004 7.01026L18 19.0769C18 20.9891 13.9716 22.5385 9 22.5385C4.0284 22.5385 0 20.9891 0 19.0769V8.5V8C0 7.88881 0.0136202 7.77885 0.0402541 7.67036Z" fill="#8b5531"/>
<path fill-rule="evenodd" clip-rule="evenodd" d="M3 10.6419L3.92311 11.508L9.5255 7.75868L15 11.508V16.6738C14.916 17.9329 14.4647 19.0652 13.6787 19.7355L10.57 22.386C9.60933 23.2047 8.39067 23.2047 7.43 22.386L4.32133 19.7355C3.53533 19.0652 3.084 17.9329 3 16.6738V10.6419Z" fill="#F0B496"/>
</svg>
