<svg width="25" height="25" viewBox="0 0 25 25" fill="none" xmlns="http://www.w3.org/2000/svg">
<path d="M20.1484 16.85L16.5017 16.1183C16.115 16.04 15.8334 15.6967 15.8334 15.3017V14.35C19.475 14.0033 20 13.2583 20 12.5C20 10.2583 18.51 5.05333 18.2634 4.20667C18.2334 2.89833 17.9934 2.16167 17.395 1.51833C16.9717 1.06 16.35 0.953333 15.8484 0.868333C15.6517 0.833333 15.38 0.788333 15.28 0.733333C14.3917 0.251667 13.5134 0.02 12.465 0C10.27 0.09 7.57171 1.48667 6.64837 4.04C6.58171 4.27833 5.00004 9.915 5.00004 12.5C5.00004 13.5783 6.22004 14.1467 9.16671 14.4067V15.3017C9.16671 15.6967 8.88504 16.04 8.49671 16.1183L4.85504 16.8483C2.52504 17.3067 0.833374 19.3683 0.833374 21.75V23.3333C0.833374 24.2517 1.58171 25 2.50004 25H22.5C23.4184 25 24.1667 24.2517 24.1667 23.3333V21.75C24.1667 19.3683 22.475 17.3067 20.1484 16.85Z" fill="black"/>
</svg>
