<svg width="28" height="25" viewBox="0 0 28 25" fill="none" xmlns="http://www.w3.org/2000/svg">
<path d="M1.0769 16.621C1.0769 15.4632 2.04075 14.5254 3.23075 14.5254V22.9077C2.04075 22.9077 1.0769 21.9699 1.0769 20.8121V16.621Z" fill="#F0B496"/>
<path d="M27.6084 16.621C27.6084 15.4632 26.0082 14.2916 24.8182 14.2916L25.4546 22.9077C26.6446 22.9077 27.6084 21.9699 27.6084 20.8121V16.621Z" fill="#F0B496"/>
<path fill-rule="evenodd" clip-rule="evenodd" d="M9.69233 1.29923L14 0L18.3077 1.29923L25.8462 7.58591V8.23559L28 17.6655H25.2521L25.2377 17.8332L28 25H24.7692V23.3025L23.6923 12.8248L22.6154 10.7292L20.3636 15.5908L14 11.6931L7 15.5908L5.38464 10.7292L4.30771 12.8248L3.23079 23.3026L3.23077 23.3023V25H0L2.76233 17.8331L2.74797 17.6655H0L2.15384 8.23553L2.15387 8.23575V7.58591L9.69233 1.29923Z" fill="#FFDD2C"/>
</svg>
