<svg width="26" height="25" viewBox="0 0 26 25" fill="none" xmlns="http://www.w3.org/2000/svg">
<path fill-rule="evenodd" clip-rule="evenodd" d="M21.8797 22.6988L22.4499 23.269L21.5253 24.1936H23.7777V25H2.00353V24.1936H3.21321V0H15.31V2.41936H7.24546V24.1936H11.2777V10.8871H12.0842V24.1936H13.2939V14.9194H14.1003V24.1936H15.31V10.8871H16.1164V24.1936H20.385L19.4604 23.269L20.0305 22.6988L20.5519 23.2202V15.3226H21.3584V23.2202L21.8797 22.6988ZM14.5035 0.806453H7.24546V1.6129H14.5035V0.806453ZM5.63256 3.22581H6.43901V0.806453H4.01966V24.1936H6.43901V23.3871H5.63256V22.5806H6.43901V21.7742H4.82611V20.9677H6.43901V20.1613H5.63256V19.3548H6.43901V18.5484H4.82611V17.7419H6.43901V16.9355H5.63256V16.129H6.43901V15.3226H4.82611V14.5161H6.43901V13.7097H5.63256V12.9032H6.43901V12.0968H4.82611V11.2903H6.43901V10.4839H5.63256V9.67742H6.43901V8.87097H4.82611V8.06452H6.43901V7.25807H5.63256V6.45161H6.43901V5.64516H4.82611V4.83871H6.43901V4.03226H5.63256V3.22581ZM20.5519 9.67742V1.77984L20.0305 2.30121L19.4604 1.73105L20.9551 0.236291L22.4499 1.73105L21.8797 2.30121L21.3584 1.77984V9.67742H20.5519ZM15.7132 5.24194V6.04839C15.7132 6.70444 15.3934 7.28266 14.9068 7.65121V8.16371L16.8519 8.71936C17.3684 8.86694 17.7293 9.34557 17.7293 9.88266V15.3226H16.9229V9.88266C16.9229 9.70323 16.8027 9.54395 16.6301 9.49436L14.1003 8.77178V8.02379C13.9701 8.0504 13.835 8.06452 13.6971 8.06452C13.5592 8.06452 13.4241 8.0504 13.2939 8.02379V8.77178L10.764 9.49476C10.5914 9.54395 10.4713 9.70363 10.4713 9.88266V15.3226H9.66482V9.88266C9.66482 9.34557 10.0257 8.86694 10.5422 8.71895L12.4874 8.16331V7.65081C12.0007 7.28266 11.6809 6.70444 11.6809 6.04839V5.24194C11.6809 4.13024 12.5854 3.22581 13.6971 3.22581C14.8088 3.22581 15.7132 4.13024 15.7132 5.24194ZM12.4874 6.04839C12.4874 6.71532 13.0301 7.25807 13.6971 7.25807C14.364 7.25807 14.9068 6.71532 14.9068 6.04839V5.24194C14.9068 4.575 14.364 4.03226 13.6971 4.03226C13.0301 4.03226 12.4874 4.575 12.4874 5.24194V6.04839ZM0.390625 24.1936H1.19708V25H0.390625V24.1936ZM25.3906 24.1936H24.5842V25H25.3906V24.1936ZM20.5519 13.7097V14.5161H21.3584V13.7097H20.5519ZM20.5519 12.9032V12.0968H21.3584V12.9032H20.5519ZM20.5519 10.4839V11.2903H21.3584V10.4839H20.5519Z" fill="#FEFCFC"/>
</svg>
