<svg width="25" height="25" viewBox="0 0 25 25" fill="none" xmlns="http://www.w3.org/2000/svg">
<path fill-rule="evenodd" clip-rule="evenodd" d="M24.2454 9.64731C24.4001 10.3565 24.4857 11.0905 24.5126 11.8399H0C0.232716 5.26334 5.62304 0 12.2564 0C14.1424 0 15.9221 0.437943 17.5187 1.19736V1.75406V2.6311H16.6416V3.5081H18.3957V4.3851H17.5187V5.26225H19.2727V6.13925H20.1498V7.01627H17.5187V7.89331H21.0268V8.77031H19.2727V9.64731H24.2454ZM11.3794 6.13921C11.3794 4.20215 9.8084 2.6311 7.87134 2.6311C5.9334 2.6311 4.36318 4.20215 4.36318 6.13921C4.36318 8.07681 5.9334 9.64731 7.87134 9.64731C9.8084 9.64731 11.3794 8.07686 11.3794 6.13921ZM14.0105 23.6798H14.8875V24.2673C14.0396 24.4523 13.1608 24.5568 12.2564 24.5568C5.62305 24.5568 0.232666 19.294 0 12.7169H24.5126C24.4858 13.4666 24.4001 14.2003 24.2454 14.9095H20.1498V15.7865H21.9038V16.6635H18.3957V17.5406H16.6416V18.4176H19.2727V19.2946H21.0268V20.1717H20.1498V21.0487H17.5187V21.9257H16.6416V22.8028H14.0105V23.6798Z" fill="white"/>
</svg>
