<svg width="19" height="25" viewBox="0 0 19 25" fill="none" xmlns="http://www.w3.org/2000/svg">
<path fill-rule="evenodd" clip-rule="evenodd" d="M2.19231 16.879H0L2.19231 11.2197V16.879Z" fill="#8C5A3C"/>
<path fill-rule="evenodd" clip-rule="evenodd" d="M16.8077 16.879H19L16.8077 11.2197V16.879Z" fill="#8C5A3C"/>
<path fill-rule="evenodd" clip-rule="evenodd" d="M16.8077 9.80484H2.19231C1.38481 9.80484 0.730774 10.438 0.730774 11.2197V14.0494C0.730774 14.8311 1.38481 15.4642 2.19231 15.4642H16.8077C17.6152 15.4642 18.2692 14.8311 18.2692 14.0494V11.2197C18.2692 10.438 17.6152 9.80484 16.8077 9.80484Z" fill="#F0B496"/>
<path fill-rule="evenodd" clip-rule="evenodd" d="M16.7745 9.58532C16.7745 6.19041 13.5028 3.43784 9.46681 3.43784C5.43077 3.43784 2.15912 6.19041 2.15912 9.58532V18.7146C2.15912 19.3449 2.4485 19.942 2.94835 20.3452L5.93427 22.754C6.32815 23.0716 6.4773 23.2456 7.34094 23.6842C8.93914 24.6364 9.94174 24.4774 11.6591 23.6842C12.1721 23.6842 12.6055 23.0716 12.9993 22.754L15.9853 20.3452C16.4851 19.942 16.7745 19.3449 16.7745 18.7146V9.58532Z" fill="#F0B496"/>
<path fill-rule="evenodd" clip-rule="evenodd" d="M9.5 0L6.57693 0.877193L1.46155 5.12172V7.24398L2.19232 15.733L2.92309 8.65882L3.65385 7.24398L4.75 10.5263L9.5 7.89474L13.8182 10.5263L15.3462 7.24398L16.0769 8.65882L16.8077 15.733L17.5385 7.24398V5.12172L12.4231 0.877193L9.5 0Z" fill="#8C5A3C"/>
<path fill-rule="evenodd" clip-rule="evenodd" d="M2.19231 11.9271H0L1.46154 5.56032L2.19231 11.9271Z" fill="#8C5A3C"/>
<path fill-rule="evenodd" clip-rule="evenodd" d="M16.8077 11.9271H19L17.5384 5.56032L16.8077 11.9271Z" fill="#8C5A3C"/>
<path d="M9.50004 25C7.42732 25 5.61368 21.9298 3.45459 20.614H15.5455C14.394 22.076 11.5728 25 9.50004 25Z" fill="#F0B496"/>
</svg>
