<svg width="19" height="25" viewBox="0 0 19 25" fill="none" xmlns="http://www.w3.org/2000/svg">
    <path fill-rule="evenodd" clip-rule="evenodd" d="M16.7745 9.58532C16.7745 6.19041 13.5028 3.43784 9.46681 3.43784C5.43077 3.43784 2.15912 6.19041 2.15912 9.58532V9.8052C1.36696 9.82226 0.730774 10.4487 0.730774 11.2197V14.0494C0.730774 14.8203 1.36696 15.4468 2.15912 15.4638V18.7146C2.15912 19.3449 2.4485 19.942 2.94835 20.3452L5.93427 22.754C5.9588 22.7737 5.98237 22.793 6.00524 22.8117C7.16223 23.948 8.28675 25 9.50004 25C11.4622 25 14.0951 22.3797 15.3473 20.8598L15.9853 20.3452C16.4851 19.942 16.7745 19.3449 16.7745 18.7146V15.4642H16.8077C17.6152 15.4642 18.2692 14.8311 18.2692 14.0494V11.2197C18.2692 10.438 17.6152 9.80484 16.8077 9.80484H16.7745V9.58532Z" fill="#F0B496"/>
    <path fill-rule="evenodd" clip-rule="evenodd" d="M6.57693 0.877193L9.5 0L12.4231 0.877193L17.5385 5.12172V5.56038L19 11.9271H17.1353L17.1256 12.0403L19 16.879H16.8077V15.7329L16.0769 8.65882L15.3462 7.24398L13.8182 10.5263L9.5 7.89474L4.75 10.5263L3.65385 7.24398L2.92309 8.65882L2.19232 15.733L2.19231 15.7329V16.879H0L1.87443 12.0403L1.86469 11.9271H0L1.46154 5.56032L1.46155 5.56041V5.12172L6.57693 0.877193Z" fill="#8C5A3C"/>
</svg>
