<svg width="24" height="26" viewBox="0 0 24 26" fill="none" xmlns="http://www.w3.org/2000/svg">
<path d="M13.3976 21.5161C13.1126 21.4988 12.8263 21.4633 12.5465 21.4105L12.4658 21.3954L12.4847 20.1142L13.6741 20.2144L13.6631 20.3139C13.6228 20.6824 13.5677 21.0599 13.4996 21.436L13.4842 21.5213L13.3976 21.5161Z" fill="white"/>
<path d="M13.6846 21.528L13.7048 21.4133C13.7698 21.0452 13.8225 20.6794 13.8616 20.3258L13.8721 20.2313L14.8908 20.3168L14.7611 21.2874C14.759 21.3023 14.7609 21.3178 14.7664 21.3336L14.8053 21.4429L14.6909 21.4625C14.5326 21.4898 14.3632 21.5081 14.173 21.5186C14.0599 21.5249 13.9382 21.528 13.8009 21.528H13.6846Z" fill="white"/>
<path d="M14.9743 21.2604C14.9753 21.252 14.9747 21.2434 14.973 21.234L14.9701 21.2186L15.089 20.3336L16.1754 20.4249L16.114 20.5527C15.9711 20.8495 15.7012 21.1022 15.3541 21.2644C15.2742 21.3021 15.1891 21.3355 15.1014 21.3637L14.9585 21.4095L14.9743 21.2604Z" fill="white"/>
<path d="M15.1152 20.1367L15.317 18.6341L15.4456 18.7146C15.5575 18.785 15.6613 18.8657 15.7538 18.9546C16.0731 19.2641 16.2532 19.7144 16.2245 20.1304L16.2177 20.2292L15.1152 20.1367Z" fill="white"/>
<path d="M13.8915 20.0335L13.8999 19.9359C13.9422 19.4495 13.963 18.9483 13.9615 18.4457L13.9613 18.3467L14.0601 18.3476C14.1194 18.3482 14.1728 18.3499 14.2237 18.3528C14.522 18.3698 14.8019 18.4274 15.0557 18.5235L15.1282 18.551L14.9174 20.1198L13.8915 20.0335Z" fill="white"/>
<path d="M12.4872 19.9155L12.5072 18.5571L12.5827 18.5405C12.9194 18.4668 13.2825 18.3942 13.6575 18.3629L13.7632 18.3539L13.7634 18.46C13.7643 18.9525 13.7439 19.4438 13.7025 19.9202L13.694 20.0173L12.4872 19.9155Z" fill="white"/>
<path d="M15.9781 12.4978C15.548 12.4978 15.1393 12.3813 14.796 12.161C14.0294 11.6677 13.6315 10.6679 13.8501 9.78326C14.0227 9.0825 14.5858 8.48322 15.3197 8.21924C15.5324 8.14256 15.7552 8.10365 15.9816 8.10365C16.4428 8.10365 16.8996 8.26368 17.3024 8.56657C17.6518 8.82978 17.92 9.18741 18.0575 9.57384C18.1367 9.79662 18.1769 10.0345 18.1769 10.2809C18.1769 10.9693 17.8685 11.6246 17.3518 12.0337C16.9744 12.333 16.4866 12.4978 15.9781 12.4978V12.4978ZM15.9835 9.35564C15.8847 9.35564 15.787 9.3728 15.6932 9.40656C15.3764 9.52043 15.1423 9.77106 15.0672 10.0772C14.9732 10.4573 15.1441 10.8867 15.4733 11.0982C15.6201 11.1924 15.7956 11.2424 15.9806 11.2424C16.2 11.2424 16.4098 11.1718 16.5713 11.0438C16.878 10.8003 17.0053 10.3559 16.874 9.98697C16.8139 9.8176 16.7022 9.66787 16.5503 9.55381C16.3779 9.4243 16.182 9.35564 15.9835 9.35564V9.35564Z" fill="white"/>
<path d="M15.9808 11.0444C15.8341 11.0444 15.6957 11.0053 15.5807 10.9315C15.3245 10.7669 15.1864 10.4199 15.2595 10.1247C15.3184 9.88664 15.5105 9.68313 15.7607 9.59329C15.8315 9.56773 15.906 9.55476 15.9822 9.55476C16.1386 9.55476 16.2938 9.60912 16.4308 9.71212C16.5496 9.80157 16.6406 9.92288 16.6873 10.0537C16.7892 10.3408 16.6863 10.6994 16.4481 10.8882C16.3211 10.9889 16.1551 11.0444 15.9808 11.0444V11.0444Z" fill="#ED6D66"/>
<path d="M19.7175 11.1398C19.7072 11.1398 19.6977 11.1392 19.6874 11.1386C19.3876 11.1201 19.124 10.8298 19.1341 10.5296C19.144 10.23 19.32 10.0966 19.4242 10.0438C19.5117 9.99956 19.613 9.97629 19.7175 9.97629C19.8516 9.97629 19.9825 10.0148 20.0856 10.0848C20.1822 10.1502 20.3395 10.3045 20.3117 10.6034C20.2859 10.889 20.008 11.1398 19.7175 11.1398V11.1398Z" fill="#CBE580"/>
<path d="M19.4673 13.172L18.5555 13.156L18.5634 13.0528C18.5641 13.0439 18.5649 13.034 18.567 13.0221C18.578 12.9334 18.5843 12.8323 18.591 12.7252C18.6048 12.4959 18.6189 12.2603 18.6919 12.0875C18.7514 11.9477 18.8867 11.9317 19.1026 11.9174L19.11 11.9168C19.1571 11.9136 19.2059 11.9103 19.2534 11.9046C19.313 11.8972 19.3694 11.8934 19.4207 11.8934C19.5788 11.8934 19.6994 11.93 19.7791 12.0021C19.9367 12.1455 19.9326 12.4097 19.9164 12.646C19.909 12.753 19.9021 12.8526 19.8708 12.9443C19.8409 13.034 19.7865 13.1047 19.7219 13.1379C19.6622 13.1682 19.5863 13.1724 19.513 13.1724C19.4978 13.1724 19.4823 13.1722 19.4673 13.172Z" fill="#CBE580"/>
<path d="M18.518 5.99908C18.5014 5.99908 18.4846 5.99832 18.468 5.9968C18.1917 5.96933 17.946 5.70459 17.9201 5.40647C17.9178 5.37939 17.9166 5.35326 17.9166 5.32827C17.9166 5.01146 18.0932 4.82225 18.2582 4.75092C18.324 4.72288 18.3925 4.70857 18.4621 4.70857C18.6325 4.70857 18.8022 4.79364 18.9401 4.94775C19.1076 5.13525 19.1562 5.42135 19.0584 5.64355C18.9659 5.85298 18.7437 5.99908 18.518 5.99908V5.99908Z" fill="#CBE580"/>
<path d="M16.3798 16.7027C16.1969 16.7027 16.0209 16.619 15.9207 16.4842C15.7903 16.3094 15.7609 16.1206 15.8381 15.9524C15.9249 15.7628 16.1303 15.6255 16.3491 15.6106C16.3615 15.6098 16.3751 15.6093 16.3888 15.6093C16.5175 15.6093 16.6995 15.6543 16.8363 15.8685C16.9866 16.1034 16.911 16.4597 16.6779 16.616C16.5936 16.6726 16.4906 16.7027 16.3798 16.7027V16.7027Z" fill="#CBE580"/>
<path d="M16.2244 14.7729C16.1502 14.7729 16.0768 14.7572 16.0121 14.7275C15.8118 14.6356 15.6669 14.4042 15.6594 14.1648C15.6495 13.8329 15.7844 13.6174 16.0201 13.5879C16.04 13.5858 16.0573 13.5846 16.0749 13.5846C16.3144 13.5846 16.6131 13.7845 16.6951 14.1547C16.7299 14.3111 16.7011 14.4725 16.6181 14.5863C16.5345 14.7014 16.3837 14.7729 16.2244 14.7729V14.7729Z" fill="#CBE580"/>
<path d="M15.2896 6.19115C15.2629 6.19115 15.236 6.19077 15.2089 6.19058L12.6876 6.16197L12.721 3.864L12.7962 3.84721C13.3623 3.72057 13.9411 3.65648 14.5166 3.65648C14.6325 3.65648 14.7498 3.65915 14.8654 3.6643C15.2408 3.68127 15.7056 3.74059 15.97 4.05054C16.1785 4.29563 16.221 4.6525 16.2465 4.99677C16.2748 5.37881 16.2677 5.79919 16.002 6.01968C15.83 6.16197 15.5927 6.19115 15.2896 6.19115V6.19115Z" fill="#CBE580"/>
<path d="M14.5616 23.3947C14.4143 23.3947 14.272 23.3407 14.1713 23.2469C13.9914 23.0782 13.9489 22.7284 14.0782 22.483C14.1499 22.3468 14.2642 22.2718 14.3998 22.2718C14.4448 22.2718 14.4811 22.2798 14.5005 22.2842C14.763 22.342 15.0016 22.5772 15.0552 22.8309C15.0945 23.018 15.0292 23.1803 14.8662 23.3003C14.784 23.3611 14.6758 23.3947 14.5616 23.3947Z" fill="#CBE580"/>
<path d="M14.2173 14.0752C14.1627 14.0752 14.1112 14.0656 14.0639 14.0471C13.9111 13.9867 13.7969 13.8261 13.7582 13.6172C13.7153 13.3887 13.7715 13.1701 13.905 13.0469C13.9825 12.9756 14.0763 12.9378 14.1766 12.9378C14.2268 12.9378 14.2783 12.947 14.3296 12.9653C14.5308 13.0357 14.6928 13.2245 14.7227 13.4242C14.7511 13.6121 14.6876 13.8131 14.561 13.9363C14.4719 14.0231 14.3435 14.0752 14.2173 14.0752Z" fill="#CBE580"/>
<path d="M4.58325 15.1956C3.68184 13.0092 3.33699 10.7387 3.58571 8.6297C3.87162 6.21366 4.98322 3.95975 6.63537 2.44627C7.54289 1.61523 8.64381 0.986954 9.81893 0.629326C10.5389 0.40979 11.2838 0.298401 12.0328 0.298401C12.1816 0.298401 12.3324 0.302979 12.4816 0.311752L12.5747 0.317474L12.4963 5.69601L12.3696 5.65386C12.3586 5.65023 12.3473 5.64832 12.3359 5.64832H12.3301C11.9418 5.67026 11.5411 5.69296 11.1442 5.69296C10.4684 5.69296 9.92726 5.62601 9.44127 5.48238C8.22209 5.1217 7.6085 4.29678 7.44084 3.64504C7.43131 3.6086 7.40251 3.58076 7.36531 3.57256C7.35902 3.57122 7.35215 3.57046 7.34509 3.57046C7.31496 3.57046 7.28654 3.584 7.26727 3.60765C6.72711 4.2777 6.65158 5.20296 6.58483 6.0193L6.57987 6.079C6.51292 6.88638 6.39085 7.79524 5.78679 8.36286C5.61665 8.52327 5.41676 8.64877 5.20543 8.78153C4.86535 8.99515 4.51364 9.21583 4.31737 9.58414C4.0326 10.1191 4.18805 10.7718 4.37783 11.3399C4.73603 12.411 5.18102 13.461 5.70001 14.461L5.73968 14.5371L4.62941 15.3077L4.58325 15.1956Z" fill="#935252"/>
<path d="M10.2782 8.85267C10.2386 8.83283 10.2002 8.81281 10.171 8.79755L10.1075 8.76455C9.74036 8.57629 9.33143 8.46624 8.92497 8.4464C8.87843 8.44411 8.83094 8.44278 8.78421 8.44278C8.37699 8.44278 7.96443 8.53185 7.59097 8.70008L7.27893 8.84065L7.46986 8.55665C7.7922 8.07676 8.35201 7.76682 8.89655 7.76682C8.90876 7.76682 8.92154 7.76682 8.93356 7.76739C9.53761 7.78169 10.1455 8.1748 10.4098 8.72297L10.534 8.98046L10.2782 8.85267Z" fill="#935252"/>
<path d="M12.1195 24.69C10.9322 24.6442 9.59853 24.4782 8.70875 23.5948C8.10699 22.9976 7.80868 22.1602 7.52009 21.3506C7.45658 21.1709 7.38944 20.9825 7.32059 20.802C6.92767 19.7669 6.39552 18.7777 5.88092 17.8212C5.48934 17.0926 5.08422 16.339 4.74242 15.5669L4.70981 15.4933L5.92517 14.6502C5.9658 14.6218 5.97934 14.5665 5.95588 14.5223C5.40675 13.4839 4.93926 12.3919 4.56637 11.2771C4.38079 10.7226 4.24346 10.1449 4.49275 9.67741C4.66289 9.35697 4.97741 9.15937 5.31024 8.95033L5.31863 8.94498C5.52653 8.81376 5.7413 8.67815 5.92307 8.50763C6.54792 7.91959 6.70299 7.00063 6.77737 6.09522L6.78233 6.03551C6.8386 5.35001 6.89677 4.64086 7.205 4.0616L7.29827 3.88651L7.38029 4.06732C7.87219 5.15165 9.03911 5.57012 9.38491 5.67274C9.88826 5.82132 10.4511 5.89056 11.1566 5.89056C11.5627 5.89056 11.9589 5.86824 12.3419 5.8465C12.3487 5.84612 12.3566 5.84459 12.3663 5.84154L12.495 5.80148L12.3354 16.751L12.245 16.7563C12.2166 16.7581 12.1879 16.759 12.1593 16.759C11.8431 16.759 11.5326 16.6572 11.2852 16.4725C10.9791 16.2435 10.7668 15.8807 10.717 15.5017C10.7105 15.4527 10.6684 15.4155 10.619 15.4155C10.6146 15.4155 10.6102 15.4159 10.6058 15.4164C10.5795 15.4199 10.556 15.4332 10.54 15.4542C10.524 15.4752 10.5169 15.5013 10.5205 15.5276C10.5776 15.965 10.8131 16.3674 11.1666 16.6314C11.4485 16.8422 11.799 16.9581 12.1536 16.9581C12.1731 16.9581 12.1923 16.957 12.2116 16.9558L12.3323 16.9492L12.2888 19.9403L12.1916 19.9391C12.1399 19.9386 12.0878 19.9382 12.0361 19.9382C11.2066 19.9382 10.379 20.0192 9.57603 20.1789C9.57164 20.1798 9.56935 20.181 9.56687 20.1817L9.47875 20.213L9.44156 20.1272L9.3399 19.8773C9.32464 19.8398 9.28821 19.8155 9.24739 19.8155C9.23461 19.8155 9.22202 19.8178 9.20981 19.8228C9.15984 19.8432 9.13543 19.9014 9.15603 19.9523L9.50965 20.8213C9.52491 20.859 9.56115 20.8835 9.60177 20.8835C9.61398 20.8835 9.62714 20.8808 9.63973 20.8758C9.68951 20.8554 9.71393 20.7976 9.69352 20.7471L9.54722 20.387L9.66376 20.3643C10.4412 20.2132 11.2392 20.1365 12.0356 20.1365C12.0863 20.1365 12.1372 20.1367 12.1879 20.1373L12.2858 20.1386L12.2194 24.694L12.1195 24.69ZM6.94064 10.7018C6.92481 10.7018 6.90936 10.7055 6.89506 10.7129C6.84661 10.7379 6.82754 10.798 6.85271 10.8464C7.14683 11.4165 7.52372 11.8461 7.9729 12.123C8.31565 12.3347 8.71429 12.4513 9.09537 12.4513C9.2905 12.4513 9.47799 12.4215 9.6527 12.363C10.2442 12.1654 10.6728 11.624 10.6945 11.0467C10.6966 10.992 10.6537 10.9458 10.5991 10.9439C10.5991 10.9439 10.5991 10.9439 10.5989 10.9439C10.5413 10.9439 10.4982 10.9858 10.4961 11.0393C10.4782 11.5281 10.0969 12.0055 9.58957 12.1747C9.43431 12.2268 9.26742 12.2531 9.09347 12.2531C8.74518 12.2531 8.39347 12.1497 8.07685 11.9542C7.66505 11.7003 7.30285 11.2857 7.02914 10.7552C7.01198 10.7224 6.97803 10.7018 6.94064 10.7018ZM8.89606 7.56788C8.03966 7.56788 7.22484 8.22096 7.04135 9.05485C7.03258 9.0949 7.04974 9.13667 7.08369 9.15899C7.10029 9.16986 7.11898 9.17539 7.13843 9.17539C7.15941 9.17539 7.17963 9.16872 7.19718 9.15613C7.65437 8.82406 8.21857 8.64114 8.78524 8.64114C8.82873 8.64114 8.87221 8.6421 8.9157 8.6442C9.29355 8.66308 9.67464 8.76588 10.0174 8.94155L10.0794 8.97321C10.2438 9.05885 10.3985 9.13934 10.5156 9.13934C10.5654 9.13934 10.6028 9.12485 10.6367 9.09242C10.7376 8.99553 10.6735 8.81681 10.5974 8.65488C10.3058 8.03175 9.62314 7.58524 8.93687 7.56845C8.92333 7.56807 8.9096 7.56788 8.89606 7.56788Z" fill="#FFD2BB"/>
<path d="M3.52378 16.4595C3.00136 16.4595 2.50125 16.3012 2.11558 16.014C1.38755 15.4719 1.0551 14.4366 1.34234 13.6054C1.60747 12.8386 2.38681 12.2821 3.19591 12.2821C3.2804 12.2821 3.36509 12.2886 3.4471 12.3011H3.47953L3.50909 12.3299L3.53045 12.3513L3.53599 12.3811C3.57604 12.5955 3.62296 12.8156 3.67522 13.0351L3.71165 13.1888L3.55792 13.1528C3.46293 13.1305 3.36471 13.1192 3.2661 13.1192C3.04847 13.1192 2.83618 13.174 2.6525 13.2775C2.29716 13.478 2.05531 13.8547 2.02117 14.2608C2.01888 14.2873 2.02708 14.313 2.04406 14.3332C2.06122 14.3535 2.08507 14.3659 2.11158 14.3681C2.11291 14.3683 2.11863 14.3683 2.12016 14.3683C2.17109 14.3683 2.21438 14.3283 2.21877 14.2774C2.24719 13.9409 2.45585 13.6163 2.74997 13.4507C2.90332 13.3639 3.08242 13.3181 3.268 13.3181C3.43089 13.3181 3.59034 13.3542 3.72958 13.4225L3.77784 13.4417L3.79062 13.4887C3.91631 13.9491 4.06718 14.4122 4.23884 14.865L4.25982 14.9199L4.22091 14.964C4.05135 15.157 3.81217 15.298 3.5646 15.351C3.48315 15.3687 3.39808 15.3777 3.31206 15.3777C3.12133 15.3777 2.93269 15.3338 2.76656 15.2511C2.75302 15.2444 2.73814 15.2409 2.72288 15.2409C2.68474 15.2409 2.6504 15.2619 2.63343 15.2961C2.62179 15.3197 2.61989 15.3466 2.62828 15.3716C2.63667 15.3968 2.65422 15.417 2.67787 15.4288C2.87299 15.5255 3.09119 15.5768 3.3092 15.5768C3.40991 15.5768 3.50985 15.566 3.60675 15.5448C3.84002 15.4944 4.05955 15.384 4.2417 15.2249L4.34432 15.1351L4.3962 15.2614C4.44903 15.3899 4.49386 15.4958 4.53696 15.5942C4.59609 15.7285 4.66113 15.8708 4.74143 16.0415L4.78206 16.1279L4.6968 16.1704C4.69203 16.1729 4.68688 16.175 4.68192 16.1767C4.33707 16.3613 3.93577 16.4595 3.52378 16.4595V16.4595Z" fill="#FFD2BB"/>
<path d="M20.3279 16.1038C20.1589 16.1038 19.9962 16.0798 19.8442 16.0323L19.7284 15.9963L19.7883 15.8908C19.9361 15.6308 20.0683 15.3872 20.1923 15.1463L20.2195 15.0933H20.2857L20.2928 15.0943C20.3662 15.1044 20.441 15.1095 20.5148 15.1095C21.0355 15.1095 21.5322 14.8652 21.8435 14.4561C22.2007 13.9863 22.2791 13.333 22.0435 12.7915C21.9629 12.6061 21.862 12.472 21.7349 12.3813C21.6327 12.309 21.5106 12.2691 21.3916 12.2691C21.3811 12.2691 21.3704 12.2693 21.3601 12.2699L21.2348 12.2773L21.2583 12.1541C21.2972 11.951 21.3306 11.7404 21.3575 11.5283L21.3653 11.4667L21.4217 11.4486C21.5116 11.4091 21.6083 11.3891 21.7096 11.3891C22.0611 11.3891 22.4458 11.6406 22.6241 11.987C22.8196 12.3658 22.8534 12.8447 22.73 13.4944C22.5604 14.3861 22.2247 15.071 21.7324 15.5301C21.3416 15.8946 20.8297 16.1036 20.3279 16.1038V16.1038Z" fill="#939BAA"/>
<path d="M20.5112 14.91C20.4956 14.91 20.4799 14.9098 20.4641 14.9093L20.3146 14.9043L20.3794 14.7693C20.5415 14.4324 20.6758 14.1217 20.7897 13.8198C20.9406 13.421 21.0686 13.0002 21.1696 12.5691L21.1849 12.5045L21.2507 12.4948C21.2614 12.4932 21.27 12.4911 21.2765 12.4885C21.31 12.4738 21.3485 12.4661 21.3897 12.4661C21.4681 12.4661 21.55 12.4934 21.6198 12.5432C21.7153 12.6115 21.7966 12.7217 21.8616 12.8707C22.0659 13.3405 21.9949 13.9293 21.6852 14.3361C21.4166 14.6901 20.9667 14.91 20.5112 14.91V14.91Z" fill="#939BAA"/>
<path d="M13.0304 24.7062C12.9657 24.7062 12.9012 24.7058 12.8372 24.7052C12.73 24.7043 12.6222 24.7027 12.515 24.7008L12.4177 24.6991L12.4627 21.5981L12.5758 21.6184C12.9804 21.6905 13.3924 21.7271 13.8009 21.7271C13.9234 21.7271 14.0487 21.7236 14.1839 21.7166C14.7033 21.688 15.1019 21.6016 15.4384 21.4444C15.8731 21.2409 16.2034 20.9027 16.345 20.5163C16.5496 19.9586 16.3677 19.274 15.8922 18.8128C15.4943 18.4266 14.9059 18.193 14.2352 18.1548C14.1641 18.1508 14.0907 18.1487 14.0168 18.1487C13.5293 18.1487 13.0622 18.2345 12.63 18.3274L12.51 18.3534L12.5301 16.9753L12.6411 16.9925C12.7115 17.0033 12.7832 17.0089 12.8541 17.0089C13.162 17.0089 13.4622 16.907 13.6993 16.722C14.0527 16.446 14.2524 15.9965 14.2206 15.549C14.2171 15.4973 14.174 15.4571 14.1223 15.4571C14.12 15.4571 14.1176 15.4572 14.1151 15.4572C14.0603 15.4613 14.0189 15.5087 14.0229 15.5633C14.05 15.9392 13.8751 16.3325 13.5774 16.5652C13.3762 16.7226 13.1185 16.8092 12.8513 16.8092C12.7702 16.8094 12.6895 16.801 12.6119 16.7846L12.5333 16.768L12.5802 13.5331L13.5438 13.5402L13.5579 13.6205C13.5589 13.627 13.5631 13.6546 13.5631 13.6546C13.6148 13.93 13.7748 14.1461 13.9911 14.2316C14.0626 14.2592 14.1393 14.2735 14.219 14.2735C14.397 14.2735 14.5719 14.2024 14.6991 14.0784C14.8727 13.9102 14.9566 13.6483 14.9188 13.3948C14.8776 13.1213 14.6671 12.8734 14.3951 12.7776C14.3218 12.7519 14.248 12.7389 14.1755 12.7389C14.0252 12.7389 13.8852 12.7952 13.7706 12.9012C13.6726 12.9916 13.603 13.1177 13.569 13.2655L13.5515 13.3418L12.5833 13.3347L12.6848 6.36072L15.2068 6.38876C15.2385 6.38914 15.2721 6.38971 15.3068 6.38971C15.5834 6.38971 15.8973 6.36377 16.1281 6.17189C16.3186 6.01396 16.4237 5.7765 16.4491 5.44614L16.456 5.35898L17.7125 5.31625L17.7213 5.40762C17.7219 5.41162 17.7221 5.41563 17.7223 5.41963C17.739 5.61418 17.8235 5.79919 17.9605 5.94415C18.0963 6.08797 18.2699 6.17685 18.4486 6.1944C18.473 6.19669 18.4955 6.19783 18.5172 6.19783C18.8199 6.19783 19.1169 6.00271 19.2394 5.72347C19.3698 5.42745 19.3092 5.06258 19.0881 4.81577C18.9117 4.61816 18.6895 4.50964 18.4625 4.50964C18.3658 4.50964 18.2706 4.52947 18.18 4.56876C17.9788 4.65574 17.83 4.82683 17.761 5.05037L17.7404 5.11675L16.4542 5.16042L16.4495 5.06467C16.448 5.03683 16.446 5.00917 16.4441 4.98151C16.4161 4.60462 16.368 4.2119 16.1207 3.92179C15.9053 3.66964 15.5811 3.52983 15.1002 3.48196L15.0184 3.47395L14.9568 2.62193C14.9534 2.57005 14.9102 2.52981 14.8586 2.52981C14.8561 2.52981 14.8538 2.53 14.8513 2.53C14.7966 2.534 14.7552 2.5815 14.759 2.63605L14.8185 3.46479L14.7109 3.46193C14.6421 3.46021 14.5734 3.45926 14.5046 3.45926C14.3306 3.45926 14.1546 3.46498 13.9816 3.47643L13.8917 3.48234L13.6653 1.95837L15.0077 1.90248C15.034 1.90153 15.0584 1.89008 15.0762 1.87063C15.0941 1.85117 15.1033 1.82581 15.1021 1.79948C15.0998 1.7457 15.0565 1.70393 15.0033 1.70393L13.5467 1.76477C13.5185 1.76572 13.4923 1.77869 13.4746 1.80044C13.4565 1.82237 13.4485 1.8506 13.4527 1.87826L13.6941 3.50084L13.5936 3.51228C13.3462 3.54032 13.0939 3.58133 12.8436 3.63435L12.724 3.65953L12.7727 0.334259L12.8795 0.346085C13.8267 0.450989 14.7685 0.729652 15.6787 1.17426C16.1708 1.4142 16.6524 1.70412 17.1098 2.036L17.1594 2.07185L17.1481 2.13441L17.0631 4.17814C17.061 4.2325 17.1035 4.27885 17.1581 4.28095L17.1647 4.28133C17.2174 4.2798 17.2593 4.23841 17.2614 4.18615L17.3438 2.20861L17.4945 2.32973C18.5104 3.14626 19.3775 4.17719 20.0023 5.31091C20.3206 5.8877 20.5838 6.50816 20.7845 7.15475L20.8301 7.30219L20.6775 7.28044C20.5655 7.26461 20.4728 7.25717 20.3861 7.25717C20.3285 7.25717 20.2728 7.26061 20.2203 7.26747C19.9458 7.3039 19.7156 7.44581 19.6048 7.64722C19.4972 7.84349 19.5066 8.08115 19.5133 8.25472L19.567 9.69629C19.5678 9.70182 19.5682 9.70716 19.5682 9.71212V9.78727L19.4955 9.80653C19.4379 9.82179 19.3837 9.84239 19.334 9.86757C19.091 9.99155 18.9456 10.2303 18.9357 10.5231C18.9218 10.9309 19.2672 11.3112 19.6748 11.3368C19.6887 11.3378 19.7034 11.3381 19.7181 11.3381C20.1114 11.3381 20.4738 11.0101 20.5095 10.6217C20.5121 10.5926 20.5135 10.5649 20.5135 10.5374C20.5135 10.278 20.4011 10.0591 20.197 9.92098C20.0973 9.85346 19.9767 9.80768 19.8484 9.7888L19.765 9.7764V9.67989L19.7112 8.24747C19.7038 8.04433 19.7042 7.8782 19.7791 7.74297C19.8589 7.59859 20.038 7.49178 20.2464 7.4645C20.2911 7.45859 20.3391 7.45554 20.3893 7.45554C20.5356 7.45554 20.687 7.48109 20.8295 7.50723L20.8905 7.51848L20.9062 7.57837C21.3212 9.15575 21.355 10.8258 21.0038 12.4082L20.9867 12.4856L20.1255 12.4753L20.1209 12.3834C20.1095 12.1448 20.0412 11.9721 19.9123 11.8554C19.7934 11.7475 19.633 11.6952 19.4221 11.6952C19.3622 11.6952 19.2972 11.6994 19.2287 11.708C19.19 11.7125 19.1497 11.7156 19.1072 11.7185L19.0904 11.7198C18.8915 11.7326 18.62 11.7503 18.5096 12.0101C18.4234 12.213 18.4072 12.478 18.3931 12.7118L18.3927 12.7179C18.3864 12.8198 18.3805 12.9161 18.3694 13.0012C18.3662 13.0252 18.3629 13.0536 18.3629 13.0868C18.3629 13.1898 18.3944 13.2627 18.4593 13.3094C18.5209 13.3536 18.5958 13.355 18.6408 13.3559L19.4604 13.3704L19.5182 13.371C19.609 13.371 19.7149 13.3643 19.8121 13.3151C19.9233 13.2581 20.0113 13.149 20.0591 13.008C20.0824 12.939 20.0973 12.8612 20.1061 12.7635L20.1143 12.6737L20.9388 12.6828L20.9068 12.8041C20.8263 13.1074 20.7311 13.4076 20.6235 13.6966L20.6077 13.7393L20.5646 13.7546C19.7831 14.0313 18.9651 14.1719 18.1327 14.1719C17.7326 14.1719 17.3299 14.1385 16.9362 14.0727L16.8783 14.063L16.8597 14.0071C16.7184 13.5806 16.3524 13.3864 16.072 13.3864C16.0463 13.3864 16.0205 13.388 15.9957 13.3912C15.5858 13.4421 15.4516 13.8429 15.4611 14.1707C15.4708 14.4874 15.6591 14.7838 15.9297 14.9081C16.018 14.9486 16.1186 14.9699 16.2204 14.9699C16.4451 14.9699 16.6589 14.8679 16.7789 14.7035C16.8462 14.6108 16.8891 14.4961 16.9027 14.372L16.9137 14.2709L17.0144 14.2859C17.3112 14.3308 17.612 14.3579 17.9084 14.3664L18.0126 14.3695L17.8373 16.2326C17.8348 16.2591 17.8426 16.2848 17.8596 16.3051C17.8764 16.3255 17.9 16.3381 17.9265 16.3405C17.9288 16.3405 17.9324 16.3409 17.9359 16.3409C17.9866 16.3409 18.0299 16.3018 18.0343 16.2517L18.2115 14.3702L18.2985 14.3683C18.9815 14.3535 19.6594 14.2449 20.3132 14.046L20.514 13.9848L20.4315 14.1778C20.0071 15.1689 19.4383 16.1136 18.888 17.0272L18.8825 17.0363C18.7122 17.3194 18.5357 17.6122 18.3654 17.904L18.332 17.961L18.2668 17.9513C18.2634 17.9509 18.2597 17.9505 18.2561 17.9505C18.254 17.9505 18.2517 17.9507 18.2494 17.9509C18.0541 17.9673 17.8575 17.9755 17.6629 17.9755C17.2719 17.9755 16.8784 17.9425 16.4937 17.8773C16.3644 17.8557 16.2368 17.8239 16.1792 17.7375C16.126 17.6558 16.135 17.5319 16.2063 17.3573L16.2206 17.3226C16.262 17.2221 16.3091 17.1079 16.3194 16.9896L16.327 16.9044L16.4127 16.9007C16.5509 16.8948 16.6812 16.8534 16.789 16.7809C17.1113 16.5643 17.2118 16.0884 17.0038 15.7622C16.8594 15.5356 16.6406 15.4107 16.3877 15.4107C16.3703 15.4107 16.3532 15.4115 16.3356 15.4126C16.0465 15.4326 15.7741 15.6163 15.6579 15.8696C15.5505 16.1035 15.5885 16.3709 15.7621 16.6028C15.8359 16.7024 15.9398 16.7827 16.0632 16.8359L16.1168 16.859L16.122 16.9169C16.131 17.0199 16.0856 17.1302 16.0373 17.2469L16.022 17.2835C15.9862 17.372 15.8775 17.6406 16.0138 17.8468C16.1268 18.0167 16.3524 18.0547 16.4609 18.0728C16.8571 18.1397 17.2612 18.1735 17.6624 18.1735C17.7804 18.1735 17.9048 18.1703 18.0429 18.1634L18.2197 18.1548L18.1327 18.3089C17.6784 19.1148 17.1205 20.1926 16.8355 21.3868C16.7945 21.5587 16.7577 21.7357 16.7205 21.9169C16.5715 22.6394 16.4314 23.3207 15.9757 23.8345C15.6781 24.1702 15.2723 24.4012 14.7348 24.5406L14.6121 24.5725L14.6159 23.5951L14.6962 23.5808C14.8052 23.5616 14.9022 23.5211 14.9843 23.4603C15.2082 23.2949 15.3047 23.0508 15.2496 22.79C15.1794 22.4595 14.8824 22.1654 14.5433 22.0908C14.4944 22.0799 14.4464 22.0744 14.3998 22.0744C14.1868 22.0744 14.0102 22.1869 13.9026 22.391C13.7508 22.6794 13.7592 23.1326 14.0363 23.3918C14.1214 23.4712 14.2286 23.5305 14.3461 23.5635L14.4176 23.5835L14.4136 24.6106L14.3316 24.6236C13.869 24.6966 13.3931 24.7062 13.0304 24.7062V24.7062ZM15.9833 7.90453C15.7342 7.90453 15.4884 7.94763 15.2524 8.03251C14.4456 8.323 13.8494 8.95967 13.6575 9.73558C13.4191 10.7003 13.853 11.7906 14.6892 12.3277C15.0619 12.5674 15.5072 12.6941 15.9766 12.6941C16.5326 12.6941 17.0648 12.5148 17.4751 12.1892C18.2536 11.5718 18.5771 10.4438 18.2445 9.50746C18.1695 9.29746 18.0602 9.09528 17.9195 8.90665C17.7783 8.7182 17.6109 8.55055 17.4217 8.40826C16.9833 8.07867 16.4859 7.90453 15.9833 7.90453V7.90453Z" fill="#939BAA"/>
<path d="M9.68398 12.4556C10.3132 12.2451 10.7691 11.6671 10.792 11.0503C10.7962 10.9416 10.7113 10.8502 10.6026 10.8462C10.4942 10.842 10.4027 10.9269 10.3987 11.0356C10.3819 11.485 10.0286 11.9252 9.55886 12.0824C9.11692 12.2302 8.5821 12.1512 8.12834 11.8712C7.73161 11.6263 7.38143 11.225 7.11554 10.7106C7.06576 10.6141 6.94693 10.5763 6.85042 10.6261C6.75391 10.6761 6.71595 10.7947 6.76592 10.8912C7.06881 11.4776 7.45753 11.9199 7.92159 12.2062C8.28684 12.4316 8.69883 12.5487 9.09556 12.5487C9.2985 12.5487 9.49725 12.518 9.68398 12.4556V12.4556Z" fill="#231F20"/>
<path d="M17.5357 12.2655C18.3459 11.6229 18.6826 10.4493 18.3364 9.47484C18.1796 9.03367 17.8756 8.62722 17.4804 8.33005C16.7926 7.81316 15.9684 7.67106 15.2194 7.94057C14.3815 8.24212 13.7622 8.90435 13.5627 9.71231C13.3147 10.7163 13.7662 11.8506 14.6362 12.4099C15.0342 12.6656 15.5053 12.7915 15.9768 12.7915C16.5361 12.7915 17.0963 12.6143 17.5357 12.2655V12.2655ZM13.9449 9.80672C14.1101 9.13705 14.6497 8.56389 15.3527 8.31098C15.5572 8.23735 15.7689 8.20111 15.9816 8.20111C16.4161 8.20111 16.8546 8.35218 17.2437 8.64476C17.5781 8.89596 17.8342 9.23757 17.9654 9.60664C18.2571 10.4274 17.9734 11.416 17.2912 11.9573C16.6087 12.4984 15.5816 12.5495 14.8488 12.0786C14.1162 11.6078 13.7361 10.6522 13.9449 9.80672V9.80672Z" fill="#231F20"/>
<path d="M16.9662 9.95454C16.8995 9.76667 16.7759 9.60111 16.6088 9.4756C16.3217 9.25969 15.9759 9.20114 15.6603 9.31481C15.3129 9.43975 15.0556 9.71593 14.9723 10.0537C14.8685 10.473 15.0572 10.9469 15.4205 11.1804C15.5868 11.2872 15.7837 11.3398 15.9807 11.3398C16.2142 11.3398 16.4482 11.2658 16.6319 11.1201C16.9702 10.8518 17.111 10.3614 16.9662 9.95454ZM16.3872 10.8117C16.1798 10.9761 15.856 10.9923 15.6334 10.8493C15.411 10.7062 15.291 10.4049 15.3545 10.1481C15.4054 9.94157 15.5737 9.76438 15.7936 9.68522C15.8548 9.6631 15.9183 9.65222 15.9824 9.65222C16.1157 9.65222 16.2513 9.69934 16.3723 9.79032C16.4758 9.86814 16.5552 9.97323 16.5954 10.0863C16.6839 10.3354 16.5945 10.6473 16.3872 10.8117Z" fill="#231F20"/>
<path d="M22.8872 11.8514C22.6384 11.3692 22.0529 11.0003 21.5007 11.1148C21.6779 9.06915 21.2568 6.97298 20.2615 5.16786C19.2468 3.32727 17.6654 1.81455 15.8088 0.908178C13.8175 -0.0638072 11.7164 -0.258166 9.73256 0.345891C8.51529 0.71668 7.37508 1.36747 6.43552 2.22806C4.73149 3.78847 3.58575 6.10914 3.29201 8.59518C3.16155 9.69934 3.18959 10.8426 3.37041 11.9945C2.38984 11.9061 1.39382 12.5501 1.06251 13.5085C0.729682 14.4719 1.09818 15.6255 1.93894 16.2517C2.39079 16.5883 2.95251 16.7598 3.52013 16.7598C3.96779 16.7598 4.41926 16.6532 4.82381 16.4365C5.07958 16.9551 5.3529 17.464 5.62051 17.9616C6.13053 18.9099 6.65772 19.8905 7.04396 20.9071C7.11148 21.0847 7.17728 21.2695 7.24099 21.4482C7.54044 22.2897 7.8502 23.1599 8.50003 23.8048C9.58665 24.8837 11.2373 24.9873 12.8347 25.001C12.8988 25.0016 12.9628 25.002 13.0275 25.002C14.1782 25.002 15.4289 24.8971 16.1971 24.0306C16.7053 23.4574 16.8603 22.7046 17.0104 21.9766C17.0459 21.8039 17.0827 21.6254 17.1233 21.4553C17.4892 19.9223 18.3288 18.5288 19.1406 17.1811C19.3181 16.8864 19.4972 16.5887 19.6731 16.2873C19.8777 16.3621 20.0975 16.3991 20.3224 16.3991C20.8864 16.3991 21.4799 16.1704 21.9341 15.7466C22.4738 15.2432 22.8395 14.504 23.0207 13.5495C23.1569 12.8314 23.1145 12.2918 22.8872 11.8514V11.8514ZM21.3146 12.5781C21.3838 12.5482 21.4837 12.5661 21.5633 12.6227C21.6438 12.6801 21.7141 12.7767 21.7721 12.9098C21.9627 13.3475 21.8967 13.897 21.6077 14.2772C21.3456 14.6216 20.9009 14.8261 20.4675 14.8118C20.6186 14.498 20.7584 14.1791 20.8812 13.8541C21.037 13.4416 21.1643 13.0195 21.2648 12.5913C21.2816 12.589 21.2983 12.5852 21.3146 12.5781ZM14.861 3.76195C15.2166 3.77797 15.6555 3.83233 15.8954 4.11386C16.0848 4.33587 16.1245 4.67538 16.1489 5.00402C16.1754 5.36107 16.1714 5.75208 15.9395 5.94434C15.7674 6.0872 15.4964 6.09617 15.2101 6.09292L12.7868 6.06584L12.8177 3.94258C13.4879 3.79266 14.1748 3.73124 14.861 3.76195ZM12.5804 20.2205L13.5663 20.3034C13.5248 20.6771 13.4704 21.0492 13.4034 21.4185C13.1221 21.4017 12.8419 21.367 12.5646 21.3147L12.5804 20.2205ZM13.9589 20.3364L14.7807 20.4055L14.664 21.2743C14.6598 21.3065 14.6642 21.3376 14.6745 21.3664C14.5208 21.3925 14.3531 21.4107 14.1677 21.421C14.0455 21.4276 13.923 21.4303 13.8007 21.4303C13.8652 21.0679 13.9184 20.703 13.9589 20.3364ZM15.0691 21.2161L15.1735 20.4385L16.026 20.5104C15.8941 20.7841 15.6398 21.0233 15.3129 21.176C15.2368 21.2115 15.1567 21.243 15.0718 21.2707C15.0733 21.2522 15.0726 21.2338 15.0691 21.2161V21.2161ZM16.1271 20.1238L15.2259 20.0479L15.3936 18.7976C15.501 18.8647 15.599 18.9408 15.686 19.0251C15.9921 19.3221 16.1535 19.7419 16.1271 20.1238ZM14.8332 20.0149L13.9974 19.9447C14.0407 19.4459 14.0609 18.945 14.0594 18.4455C14.1124 18.4461 14.1654 18.4474 14.2185 18.4504C14.508 18.4669 14.7788 18.5233 15.0211 18.6149L14.8332 20.0149ZM13.6051 19.9117L12.5863 19.8258L12.6037 18.636C12.9472 18.5609 13.3043 18.4901 13.6657 18.4602C13.6668 18.9439 13.647 19.4287 13.6051 19.9117ZM3.68302 8.64133C3.96588 6.2478 5.06604 4.01601 6.70121 2.51836C7.59785 1.69725 8.68581 1.07641 9.84719 0.722593C10.5632 0.504392 11.2954 0.396054 12.0326 0.396054C12.1801 0.396054 12.3277 0.400632 12.4755 0.409215L12.4004 5.56135C12.3769 5.55334 12.3515 5.54952 12.325 5.55105C11.3725 5.60483 10.3877 5.66034 9.46877 5.38873C8.28851 5.03969 7.69608 4.24661 7.53529 3.62062C7.51679 3.54852 7.45919 3.49302 7.38633 3.47738C7.31366 3.46155 7.23813 3.48825 7.1914 3.54623C6.63274 4.23898 6.55549 5.18083 6.48721 6.01148L6.48225 6.0708C6.41721 6.85987 6.29933 7.74698 5.72007 8.29191C5.55718 8.44488 5.36111 8.56828 5.15321 8.69893C4.80206 8.91962 4.4389 9.14792 4.231 9.53836C3.92888 10.1062 4.0889 10.7835 4.28536 11.3709C4.64471 12.4457 5.09103 13.4995 5.61326 14.506L4.67351 15.1582C3.77763 12.9847 3.43507 10.7387 3.68302 8.64133V8.64133ZM4.6407 16.0882C3.8667 16.5038 2.85237 16.4412 2.17393 15.936C1.4787 15.418 1.16074 14.4298 1.43464 13.6373C1.7154 12.8251 2.61414 12.2693 3.43812 12.3988H3.44002C3.48122 12.6183 3.52795 12.8381 3.58002 13.0576C3.2531 12.9809 2.89929 13.0263 2.60441 13.1926C2.22161 13.4086 1.96068 13.8146 1.92368 14.2528C1.91453 14.3609 1.99502 14.4563 2.10335 14.4654C2.10889 14.4658 2.11461 14.466 2.12014 14.466C2.22142 14.466 2.30725 14.3886 2.31602 14.2858C2.34177 13.9806 2.53098 13.6861 2.79782 13.5356C3.06466 13.3849 3.41447 13.3756 3.68912 13.5116C3.6916 13.5127 3.69427 13.5133 3.69656 13.5142C3.82283 13.9775 3.97332 14.4399 4.14784 14.8995C3.99182 15.0765 3.77457 15.206 3.54436 15.2556C3.30079 15.3085 3.03319 15.2749 2.81003 15.1639C2.71275 15.1154 2.5945 15.1551 2.54605 15.2524C2.4976 15.3499 2.53728 15.4679 2.63474 15.5164C2.84474 15.6209 3.07648 15.6745 3.30937 15.6745C3.4158 15.6745 3.52261 15.6632 3.62752 15.6405C3.87929 15.5862 4.11313 15.4672 4.30558 15.2984C4.35174 15.4103 4.39866 15.5221 4.44768 15.6337C4.51367 15.7844 4.58272 15.9339 4.6531 16.083C4.64909 16.085 4.64471 16.0859 4.6407 16.0882V16.0882ZM7.61178 21.3162C7.54731 21.1356 7.48093 20.9489 7.41208 20.7675C7.01668 19.7268 6.48301 18.7346 5.96707 17.7752C5.57511 17.0464 5.17056 16.2932 4.83163 15.5276L5.98042 14.7305C6.06225 14.6737 6.08876 14.5648 6.04222 14.4767C5.49538 13.4425 5.0298 12.3557 4.65901 11.2462C4.48029 10.7123 4.34697 10.1582 4.57852 9.72337C4.73721 9.42544 5.04124 9.23433 5.36301 9.03215C5.5774 8.8973 5.79922 8.75787 5.98977 8.57858C6.63846 7.96861 6.79848 7.02848 6.87478 6.10322L6.87974 6.04391C6.93543 5.36565 6.99284 4.66794 7.29134 4.10776C7.69227 4.99143 8.5872 5.53846 9.35738 5.7662C10.3418 6.05726 11.4072 5.99698 12.3473 5.94396C12.3641 5.9432 12.3798 5.93957 12.395 5.93481L12.2388 16.6589C11.923 16.6779 11.5962 16.5828 11.3437 16.3941C11.0582 16.1809 10.86 15.8425 10.8138 15.4891C10.7997 15.3813 10.7007 15.3054 10.5932 15.3195C10.4854 15.3336 10.4093 15.4324 10.4234 15.5402C10.4841 16.0037 10.7337 16.4298 11.1079 16.7096C11.4099 16.9351 11.7799 17.0558 12.1537 17.0558C12.1803 17.0558 12.2066 17.0539 12.2331 17.0526L12.1925 19.8415C11.3086 19.8306 10.4232 19.9109 9.5567 20.0831C9.54812 20.0849 9.54011 20.0879 9.5321 20.0906L9.43024 19.8405C9.38943 19.7398 9.2746 19.6914 9.1739 19.7324C9.07319 19.7732 9.02474 19.8882 9.06575 19.9887L9.41937 20.8583C9.45046 20.9348 9.52409 20.9809 9.60171 20.9809C9.62651 20.9809 9.65169 20.9763 9.67591 20.9664C9.77662 20.9254 9.82507 20.8106 9.78406 20.7101L9.6824 20.46C10.5062 20.3 11.3475 20.2249 12.1867 20.2352L12.1232 24.5923C10.8457 24.5433 9.60515 24.3474 8.77736 23.5255C8.19104 22.9436 7.89654 22.1162 7.61178 21.3162V21.3162ZM14.2381 23.1751C14.0903 23.037 14.0559 22.7349 14.1647 22.5287C14.2679 22.3327 14.4267 22.3678 14.4792 22.3794C14.7029 22.429 14.9139 22.6363 14.9596 22.8515C14.9911 22.9999 14.9402 23.1246 14.8082 23.2219C14.6508 23.3382 14.3897 23.3169 14.2381 23.1751V23.1751ZM18.8033 16.978C18.6288 17.2677 18.4533 17.5595 18.2811 17.8544C18.2676 17.8527 18.2536 17.8521 18.2395 17.8534C17.6627 17.9017 17.0808 17.8775 16.5099 17.781C16.4132 17.7646 16.2975 17.7386 16.2605 17.6829C16.2374 17.6482 16.225 17.5698 16.2965 17.3942L16.3106 17.3598C16.3541 17.2542 16.4047 17.1311 16.4165 16.9978C16.5666 16.9917 16.7152 16.9476 16.8433 16.8616C17.208 16.6169 17.3213 16.0785 17.086 15.7094C16.9126 15.4376 16.6366 15.294 16.3287 15.3151C16.0054 15.3373 15.7001 15.5436 15.569 15.8288C15.4464 16.0958 15.488 16.3993 15.6835 16.6614C15.7722 16.7802 15.8918 16.8683 16.0245 16.9251C16.0312 17.0041 15.9902 17.1042 15.9467 17.2097L15.932 17.2454C15.8912 17.3457 15.7668 17.6505 15.9324 17.9004C16.0684 18.1056 16.3223 18.1483 16.4443 18.1691C16.8466 18.237 17.2544 18.2712 17.6622 18.2712C17.7907 18.2712 17.9191 18.2673 18.0475 18.2607C17.4953 19.2401 17.0038 20.2607 16.7404 21.3637C16.6984 21.54 16.661 21.7214 16.6248 21.897C16.4787 22.6056 16.3408 23.2751 15.9025 23.7693C15.5923 24.1193 15.175 24.3253 14.7098 24.4456L14.7132 23.677C14.8315 23.6558 14.9446 23.6104 15.042 23.5385C15.2978 23.3497 15.4083 23.0695 15.3447 22.7696C15.2671 22.4036 14.9387 22.0778 14.5643 21.9951C14.248 21.9251 13.9686 22.0559 13.8162 22.3453C13.6472 22.6663 13.6583 23.1721 13.9694 23.4628C14.0693 23.5562 14.1908 23.6213 14.3195 23.6575L14.3159 24.5269C13.8353 24.6034 13.3239 24.6118 12.8379 24.6074C12.7309 24.6064 12.6237 24.6051 12.5165 24.603L12.5587 21.7145C12.9688 21.7875 13.3846 21.8245 13.8009 21.8245C13.9303 21.8245 14.0598 21.8209 14.1893 21.8139C14.7216 21.7845 15.1317 21.695 15.4794 21.5325C15.9374 21.3183 16.2862 20.9603 16.4367 20.5501C16.6541 19.9563 16.4626 19.2298 15.9599 18.7425C15.5448 18.34 14.9343 18.0966 14.2408 18.0573C13.6764 18.0253 13.1276 18.1205 12.6094 18.2319L12.626 17.0886C12.7015 17.1006 12.7778 17.1065 12.8539 17.1065C13.1782 17.1065 13.5013 17.0001 13.7594 16.7987C14.1383 16.503 14.3523 16.0216 14.3182 15.5421C14.3104 15.4338 14.2165 15.3521 14.1078 15.3598C13.9993 15.3676 13.9177 15.4618 13.9255 15.5702C13.9501 15.9152 13.7899 16.2755 13.5173 16.4884C13.273 16.6789 12.9358 16.7529 12.6319 16.6888L12.6764 13.6313L13.4614 13.6371C13.4633 13.6485 13.4649 13.6599 13.467 13.6714C13.5251 13.9811 13.7077 14.2243 13.9552 14.322C14.0394 14.3552 14.1288 14.3712 14.219 14.3712C14.4176 14.3712 14.6186 14.293 14.7672 14.1486C14.9629 13.9584 15.0579 13.664 15.0153 13.3801C14.969 13.0721 14.7329 12.7929 14.4275 12.6855C14.1662 12.5937 13.9024 12.6462 13.704 12.8295C13.59 12.9348 13.5114 13.0799 13.4736 13.2434L12.6823 13.2377L12.7811 6.45913L15.2057 6.48641C15.2377 6.48679 15.2715 6.48717 15.3068 6.48717C15.5744 6.48717 15.928 6.46524 16.1908 6.24723C16.4335 6.04581 16.5229 5.75723 16.5464 5.45358L17.6242 5.41677C17.6246 5.42173 17.6246 5.4265 17.6252 5.43165V5.43146C17.6631 5.87224 18.0206 6.24971 18.4388 6.29129C18.465 6.29377 18.4909 6.2951 18.517 6.2951C18.8562 6.2951 19.189 6.08072 19.329 5.76276C19.4745 5.43241 19.4068 5.02557 19.1608 4.75015C18.8773 4.43353 18.4867 4.32958 18.1411 4.47893C17.9097 4.57887 17.7434 4.77609 17.6675 5.02138L16.5471 5.05952C16.5454 5.0311 16.5437 5.00287 16.5416 4.97465C16.5122 4.58097 16.4615 4.17051 16.195 3.85827C15.9145 3.52926 15.4935 3.42283 15.1099 3.38487L15.0546 2.61449C15.047 2.50615 14.9526 2.42471 14.8443 2.43234C14.7357 2.44016 14.6543 2.53438 14.6619 2.64272L14.7138 3.36408C14.4674 3.35798 14.2211 3.36275 13.9755 3.37896L13.7779 2.05106L15.0117 1.99975C15.1202 1.99537 15.2047 1.90362 15.2002 1.7951C15.1958 1.68638 15.1054 1.60188 14.9953 1.60646L13.5429 1.66673C13.487 1.66902 13.4349 1.69496 13.3992 1.73807C13.3638 1.78098 13.3481 1.83725 13.3563 1.89237L13.5829 3.41482C13.3283 3.444 13.075 3.4852 12.8238 3.53841L12.8688 0.442785C13.7988 0.545781 14.7291 0.818914 15.6362 1.2618C16.1306 1.50308 16.6044 1.78937 17.0522 2.11458C17.052 2.11763 17.0511 2.12049 17.0511 2.12354L16.9658 4.17375C16.9614 4.28228 17.0457 4.37402 17.1542 4.3786C17.1571 4.3786 17.1598 4.37879 17.1626 4.37879C17.2675 4.37879 17.3547 4.29582 17.3591 4.18996L17.4333 2.40583C18.4366 3.21187 19.2893 4.21934 19.9168 5.35764C20.2375 5.939 20.4953 6.55202 20.691 7.18374C20.5364 7.16123 20.3729 7.14864 20.2075 7.17058C19.9027 7.21063 19.6454 7.37123 19.5195 7.60011C19.3992 7.81869 19.4087 8.07256 19.4156 8.25815L19.4694 9.70373C19.4696 9.70659 19.4703 9.70926 19.4705 9.71212C19.408 9.72833 19.3473 9.75103 19.2899 9.78021C19.0139 9.92078 18.8491 10.1901 18.8381 10.5195C18.8226 10.978 19.2107 11.4053 19.6685 11.4341C19.6851 11.435 19.7015 11.4356 19.7179 11.4356C20.1576 11.4356 20.5663 11.0707 20.6067 10.6305V10.6303C20.6369 10.3013 20.5076 10.0131 20.252 9.83991C20.1366 9.76171 20.0019 9.71231 19.8627 9.6919C19.8627 9.69095 19.8629 9.68999 19.8629 9.68904L19.8091 8.24346C19.802 8.05635 19.8016 7.90414 19.8646 7.78989C19.9292 7.67221 20.0805 7.58447 20.259 7.56082C20.4356 7.53755 20.626 7.56902 20.812 7.60297C21.2217 9.15994 21.2577 10.8136 20.9085 12.3864L20.2186 12.3786C20.2091 12.1764 20.1579 11.946 19.9781 11.7827C19.8039 11.6246 19.555 11.5684 19.2167 11.6107C19.1755 11.6158 19.1306 11.6187 19.0833 11.6219C18.8724 11.6357 18.5535 11.6567 18.4198 11.9718C18.3273 12.1898 18.3105 12.4639 18.2958 12.7057C18.2895 12.8079 18.2838 12.9046 18.2729 12.9884V12.9886C18.2639 13.0578 18.2367 13.2686 18.4024 13.3882C18.4892 13.4507 18.5872 13.4524 18.6401 13.4534L19.4591 13.4677C19.4778 13.4679 19.4976 13.4683 19.5186 13.4683C19.6193 13.4683 19.7418 13.4601 19.8562 13.4019C19.9909 13.3332 20.0958 13.2043 20.1516 13.0389C20.1822 12.9487 20.1955 12.8579 20.2035 12.7721L20.8123 12.7791C20.7332 13.0774 20.6399 13.3723 20.5322 13.6624C19.387 14.0677 18.1505 14.1765 16.9523 13.9764C16.7918 13.4915 16.3499 13.2483 15.9839 13.2941C15.5088 13.3532 15.3529 13.8047 15.3638 14.1732C15.3745 14.5265 15.5855 14.8572 15.8889 14.9964C15.9938 15.0445 16.1075 15.0674 16.2206 15.0674C16.4689 15.0674 16.7146 14.9571 16.8577 14.7607C16.9372 14.6514 16.9849 14.5209 17.0001 14.3825C17.3005 14.428 17.6029 14.4549 17.9055 14.4641L17.74 16.2232C17.7297 16.3314 17.8092 16.4275 17.9174 16.4376C17.9237 16.4382 17.93 16.4386 17.9361 16.4386C18.0366 16.4386 18.1222 16.3621 18.1318 16.26L18.3008 14.466C18.9914 14.4507 19.679 14.3411 20.342 14.1395C19.9197 15.1246 19.3534 16.0649 18.8033 16.978V16.978ZM15.9992 16.426C15.8893 16.2789 15.8643 16.1292 15.9269 15.993C15.9984 15.8376 16.1746 15.7203 16.3558 15.7079C16.4707 15.7 16.6326 15.7306 16.7541 15.9213C16.875 16.1107 16.8117 16.4088 16.6238 16.5349C16.4344 16.6621 16.1365 16.6102 15.9992 16.426V16.426ZM13.9713 13.1188C14.0855 13.0134 14.2116 13.0271 14.297 13.057C14.4632 13.1154 14.6016 13.276 14.6261 13.4387C14.6497 13.5968 14.5974 13.7647 14.4929 13.8663C14.3892 13.9672 14.2238 14.0048 14.0996 13.9558C13.9787 13.9083 13.8868 13.7748 13.854 13.5991C13.8179 13.4065 13.8639 13.218 13.9713 13.1188ZM18.2973 4.84056C18.3507 4.81729 18.4062 4.80604 18.4621 4.80604C18.6029 4.80604 18.7463 4.87756 18.8672 5.01279C19.0101 5.17244 19.0519 5.41562 18.9689 5.60426C18.8859 5.79233 18.6746 5.91916 18.4778 5.89971C18.2458 5.87682 18.0393 5.65156 18.0173 5.39789C17.9904 5.08775 18.1444 4.90655 18.2973 4.84056V4.84056ZM19.6931 11.0414C19.4475 11.0259 19.2231 10.7789 19.2313 10.5329C19.2394 10.2965 19.3647 10.184 19.4682 10.1312C19.5436 10.0928 19.6304 10.0739 19.7173 10.0739C19.8291 10.0739 19.9415 10.105 20.0309 10.1657C20.1267 10.2307 20.2363 10.3578 20.2146 10.5945C20.1921 10.8396 19.9386 11.0564 19.6931 11.0414ZM18.6607 13.0601C18.6612 13.0538 18.662 13.0469 18.663 13.0389C18.6755 12.942 18.6818 12.8388 18.6885 12.7297C18.7021 12.5092 18.7158 12.2813 18.782 12.1257C18.8155 12.0465 18.8894 12.0292 19.1089 12.0149C19.1598 12.0114 19.2125 12.008 19.2653 12.0013C19.4795 11.9746 19.6304 11.9992 19.7133 12.0744C19.8386 12.1882 19.8335 12.4259 19.819 12.6395C19.8121 12.7389 19.8057 12.8327 19.7786 12.9128C19.7563 12.9785 19.7185 13.0301 19.6771 13.0511C19.6266 13.0771 19.5413 13.0755 19.4658 13.0742L18.6607 13.0601ZM16.5393 14.5289C16.439 14.6666 16.2208 14.7157 16.0529 14.6388C15.8849 14.5616 15.7632 14.3655 15.7571 14.1616C15.7489 13.8814 15.8492 13.7076 16.0323 13.6849C16.0465 13.6832 16.0606 13.6823 16.0751 13.6823C16.2824 13.6823 16.5298 13.8604 16.5998 14.1761C16.6284 14.3056 16.6059 14.4376 16.5393 14.5289V14.5289ZM22.6339 13.4759C22.4687 14.3464 22.1427 15.0136 21.6655 15.4588C21.1557 15.9343 20.4452 16.1176 19.8736 15.9392C20.0132 15.6926 20.1492 15.4433 20.2791 15.1908L20.2792 15.191C20.3574 15.202 20.4362 15.2074 20.5146 15.2074C21.0571 15.2074 21.5905 14.9501 21.9211 14.5152C22.2993 14.0176 22.3827 13.3258 22.133 12.7526C22.0449 12.5501 21.9331 12.4028 21.7916 12.3019C21.6586 12.2073 21.5026 12.1636 21.354 12.1722C21.3941 11.9628 21.4273 11.752 21.4544 11.5405C21.4555 11.5399 21.4568 11.5397 21.4582 11.5392C21.8538 11.3631 22.3443 11.6574 22.5374 12.0318C22.7222 12.39 22.7529 12.8489 22.6339 13.4759V13.4759Z" fill="#231F20"/>
<path d="M7.03044 9.241C7.06343 9.26236 7.10082 9.27304 7.13839 9.27304C7.17902 9.27304 7.21965 9.26045 7.25398 9.23547C7.73215 8.88833 8.32057 8.71304 8.9107 8.74204C9.2752 8.75977 9.64236 8.85877 9.9729 9.02833L10.0347 9.06018C10.2935 9.19484 10.5382 9.32225 10.7042 9.16299C10.869 9.00506 10.7452 8.74051 10.6857 8.61329C10.3792 7.95812 9.66086 7.48834 8.93912 7.47098C8.01806 7.44885 7.14392 8.13531 6.94613 9.03386C6.92859 9.11378 6.96215 9.19618 7.03044 9.241ZM8.89659 7.86427C8.90765 7.86427 8.91871 7.86427 8.92958 7.86466C9.50236 7.87839 10.0725 8.24784 10.3219 8.76512C10.283 8.74566 10.2455 8.72621 10.2163 8.71095L10.1526 8.67795C9.77244 8.48321 9.34977 8.36934 8.93016 8.34874C8.45542 8.32528 7.98144 8.41702 7.55114 8.61081C7.84774 8.16907 8.36768 7.86427 8.89659 7.86427Z" fill="#231F20"/>
</svg>
