<svg width="20" height="25" viewBox="0 0 20 25" fill="none" xmlns="http://www.w3.org/2000/svg">
    <path fill-rule="evenodd" clip-rule="evenodd" d="M18.2955 7.12763C18.2955 3.19144 14.5646 0 9.96212 0C5.35962 0 1.62878 3.19144 1.62878 7.12763V7.38256C0.725465 7.40236 0 8.12869 0 9.02256V12.3034C0 13.1973 0.725465 13.9236 1.62878 13.9434V17.7124C1.62878 18.4433 1.95878 19.1355 2.52878 19.603L5.93378 22.3958C5.96165 22.4187 5.98845 22.4409 6.01443 22.4626C7.33389 23.7801 8.6163 25 9.99996 25C12.2374 25 15.2398 21.9621 16.6678 20.1999L17.3955 19.603C17.9655 19.1355 18.2955 18.4433 18.2955 17.7124V13.9438H18.3333C19.2542 13.9438 20 13.2097 20 12.3034V9.02256C20 8.11623 19.2542 7.38214 18.3333 7.38214H18.2955V7.12763Z" fill="#F0B496"/>
</svg>
