<svg width="25" height="25" viewBox="0 0 25 25" fill="none" xmlns="http://www.w3.org/2000/svg">
    <path fill-rule="evenodd" clip-rule="evenodd" d="M12.5 8.61136L2.67572 8.61136L0.809056 23.2606H24.1909L22.3242 8.61136L12.5 8.61136ZM8.68482 4.79696C8.68482 6.04594 9.28844 7.15678 10.2194 7.85302H2.34239C2.15224 7.85302 1.99087 7.99545 1.96663 8.18408L0.0029952 23.5909C-0.0106412 23.6992 0.0226922 23.8083 0.0946619 23.8894C0.166632 23.9712 0.269662 24.0182 0.378753 24.0182H24.6212C24.7303 24.0182 24.8333 23.972 24.9053 23.8894C24.9772 23.8076 25.0106 23.6992 24.9969 23.5909L23.0333 8.18408C23.0091 7.99545 22.8477 7.85302 22.6575 7.85302H14.7806C15.7115 7.15678 16.3151 6.04594 16.3151 4.79696C16.3151 2.69317 14.6038 0.981812 12.5 0.981812C10.3962 0.981812 8.68482 2.69317 8.68482 4.79696ZM12.5685 7.85302C14.2226 7.81646 15.5576 6.45893 15.5576 4.79696C15.5576 3.11136 14.1856 1.73939 12.5 1.73939C10.8144 1.73939 9.4424 3.11136 9.4424 4.79696C9.4424 6.45967 10.7774 7.81647 12.4315 7.85302H12.5685ZM11.0431 14.3288C10.6878 14.9091 10.2106 15.3204 9.74314 15.5076C9.67798 15.5356 9.66814 15.5917 9.74314 15.6197C10.2856 15.8538 10.7439 16.3015 11.1083 16.9L12.2772 18.8174C12.3242 18.8826 12.2871 18.9386 12.2022 18.9386H11.2575C11.2015 18.9386 11.1643 18.9204 11.1265 18.8735L10.2007 17.3765C9.76132 16.6371 9.11586 16.0485 8.42344 16.0485H8.20829V18.8356C8.20829 18.9008 8.17117 18.9386 8.10526 18.9386H7.25526C7.1901 18.9386 7.15223 18.9008 7.15223 18.8356V12.5045C7.15223 12.4394 7.1901 12.4015 7.25526 12.4015H8.10677C8.17192 12.4015 8.2098 12.4394 8.2098 12.5045V15.1136H8.4151C9.08859 15.1136 9.7242 14.553 10.1356 13.8788L11.0053 12.4674C11.0424 12.4197 11.0803 12.4015 11.1363 12.4015H12.0712C12.1462 12.4015 12.1833 12.4576 12.1363 12.5235L11.0431 14.3288ZM17.8772 18.5371C17.9333 18.5189 17.9613 18.4818 17.9613 18.4159H17.9621V15.5833C17.9621 15.5182 17.9242 15.4803 17.859 15.4803H16.0446C15.9787 15.4803 15.9416 15.5083 15.9227 15.5644L15.7166 16.3121C15.6984 16.3765 15.7356 16.4242 15.8106 16.4242H16.9431V17.8364L16.681 17.9204C16.3446 18.0326 16.0363 18.0697 15.6431 18.0697C14.5212 18.0697 13.8575 17.1818 13.8575 15.6758C13.8575 14.1704 14.5212 13.2727 15.6431 13.2727C16.0636 13.2727 16.3446 13.3197 16.709 13.4409L17.1204 13.5818C17.1765 13.6 17.2234 13.5818 17.2515 13.5159L17.5128 12.8144C17.5409 12.7591 17.5128 12.7114 17.4477 12.6833L17.0174 12.5341C16.5219 12.375 16.1659 12.3098 15.6424 12.3098C13.8568 12.3098 12.781 13.6091 12.781 15.6758C12.781 17.7424 13.8568 19.0424 15.6424 19.0424C16.2037 19.0424 16.5219 18.9864 17.0174 18.8273L17.4757 18.6682L17.8772 18.5371Z" fill="white"/>
</svg>
